<?xml version="1.0" encoding="utf-8"?>
<!-- Generator: Adobe Illustrator 25.0.0, SVG Export Plug-In . SVG Version: 6.00 Build 0)  -->
<svg version="1.1" id="Layer_1" xmlns="http://www.w3.org/2000/svg" xmlns:xlink="http://www.w3.org/1999/xlink" x="0px" y="0px"
	 viewBox="0 0 80 80" style="enable-background:new 0 0 80 80;" xml:space="preserve">
<style type="text/css">
	.st0{fill:#FFFFFF;}
	.st1{fill:#193478;}
</style>
<rect x="-27.8" y="-18.3" class="st0" width="130.7" height="119.8"/>
<g>
	<path class="st1" d="M32.7,20.4v29H26V25.8h-5.9v-5.4H32.7z"/>
	<path class="st1" d="M59.6,40.4c0,5.1-3.8,9.7-12,9.7c-4,0-8.3-1.1-11.1-3.1l2.7-5.1c2.2,1.7,5.2,2.6,8.3,2.6
		c3.3,0,5.4-1.4,5.4-3.8c0-2.3-1.5-3.8-6.8-3.8h-7.4l1.5-16.3h17.7v5.4H45.7l-0.4,5.5h2.3C56.2,31.3,59.6,35.2,59.6,40.4z"/>
</g>
<g>
	<path class="st1" d="M31.9,53h1.9c1.5,0,2.5,0.9,2.5,2.3c0,1.4-1,2.3-2.5,2.3h-1.9V53z M33.8,57.3c1.2,0,2.1-0.8,2.1-1.9
		c0-1.1-0.8-1.9-2.1-1.9h-1.4v3.8L33.8,57.3L33.8,57.3z"/>
	<path class="st1" d="M40.3,56.4h-2.6l-0.6,1.2h-0.5l2.1-4.7h0.5l2.1,4.7h-0.5L40.3,56.4z M40.1,56L39,53.5L37.8,56H40.1z"/>
	<path class="st1" d="M43.5,56v1.6H43V56L41.1,53h0.5l1.6,2.6l1.6-2.6h0.5L43.5,56z"/>
	<path class="st1" d="M45.5,57.1l0.2-0.4c0.3,0.3,0.9,0.6,1.6,0.6c0.9,0,1.3-0.4,1.3-0.8c0-1.3-2.9-0.5-2.9-2.2
		c0-0.7,0.6-1.3,1.7-1.3c0.5,0,1.1,0.2,1.5,0.4l-0.2,0.4c-0.4-0.3-0.9-0.4-1.3-0.4c-0.8,0-1.2,0.4-1.2,0.8c0,1.3,2.9,0.5,2.9,2.2
		c0,0.7-0.6,1.3-1.7,1.3C46.6,57.7,45.9,57.5,45.5,57.1z"/>
</g>
<rect x="19.8" y="54.9" class="st1" width="10.9" height="1.1"/>
<rect x="50.5" y="54.9" class="st1" width="10.9" height="1.1"/>
</svg>
