<?xml version="1.0" encoding="utf-8"?>
<!-- Generator: Adobe Illustrator 25.0.0, SVG Export Plug-In . SVG Version: 6.00 Build 0)  -->
<svg version="1.1" id="Layer_1" xmlns="http://www.w3.org/2000/svg" xmlns:xlink="http://www.w3.org/1999/xlink" x="0px" y="0px"
	 viewBox="0 0 80 80" style="enable-background:new 0 0 80 80;" xml:space="preserve">
<style type="text/css">
	.st0{fill:#EFEFEF;}
	.st1{fill:#193478;}
</style>
<rect x="-13.3" y="-15.5" class="st0" width="116.6" height="109.1"/>
<g>
	<path class="st1" d="M31.8,53h1.9c1.5,0,2.5,1,2.5,2.4s-1,2.4-2.5,2.4h-1.9V53z M33.7,57.3c1.2,0,2.1-0.8,2.1-1.9s-0.8-1.9-2.1-1.9
		h-1.4v3.9L33.7,57.3L33.7,57.3z"/>
	<path class="st1" d="M40.3,56.5h-2.6l-0.6,1.2h-0.5l2.1-4.7h0.5l2.1,4.7h-0.5L40.3,56.5z M40.1,56.1L39,53.6l-1.1,2.5H40.1z"/>
	<path class="st1" d="M43.5,56.1v1.6H43v-1.6L41.1,53h0.5l1.6,2.6l1.6-2.6h0.5L43.5,56.1z"/>
	<path class="st1" d="M45.6,57.2l0.2-0.4c0.3,0.3,1,0.6,1.6,0.6c0.9,0,1.3-0.4,1.3-0.8c0-1.3-2.9-0.5-2.9-2.2c0-0.7,0.6-1.3,1.7-1.3
		c0.5,0,1.1,0.2,1.5,0.4l-0.2,0.4c-0.4-0.3-0.9-0.4-1.3-0.4c-0.8,0-1.2,0.4-1.2,0.8c0,1.3,2.9,0.5,2.9,2.2c0,0.7-0.6,1.3-1.7,1.3
		C46.6,57.8,46,57.6,45.6,57.2z"/>
</g>
<rect x="19.7" y="54.9" class="st1" width="10.9" height="1.1"/>
<rect x="50.5" y="54.9" class="st1" width="10.9" height="1.1"/>
<g>
	<path class="st1" d="M38.4,40.8c0,4.9-2.9,9.3-9.4,9.3c-3.1,0-6.4-1.1-8.6-3.1l2-5.1c1.7,1.6,4.1,2.6,6.4,2.6
		c2.6,0,4.2-1.3,4.2-3.7c0-2.2-1.2-3.5-4.2-3.5h-2.4v-4.4l4.7-6.7h-9.5v-5.3h15.8v4.3l-5.1,7.4C36.4,33.3,38.4,36.5,38.4,40.8z"/>
	<path class="st1" d="M40.9,35.2c0-9.5,4.1-14.9,9.7-14.9c5.6,0,9.7,5.4,9.7,14.9s-4.1,14.9-9.7,14.9C45,50.1,40.9,44.7,40.9,35.2z
		 M54.9,35.2c0-6.6-1.8-9.2-4.4-9.2c-2.6,0-4.4,2.7-4.4,9.2s1.8,9.2,4.4,9.2C53.1,44.4,54.9,41.7,54.9,35.2z"/>
</g>
</svg>
