<?xml version="1.0" encoding="utf-8"?>
<!-- Generator: Adobe Illustrator 25.0.0, SVG Export Plug-In . SVG Version: 6.00 Build 0)  -->
<svg version="1.1" id="Layer_1" xmlns="http://www.w3.org/2000/svg" xmlns:xlink="http://www.w3.org/1999/xlink" x="0px" y="0px"
	 viewBox="0 0 290.6 290.6" style="enable-background:new 0 0 290.6 290.6;" xml:space="preserve">
<style type="text/css">
	.st0{fill:#262E6D;}
</style>
<g>
	<g>
		<g>
			<path class="st0" d="M276.6,281.2V60.9H260l-37.5-42.2H197V0H14.1v281.2H4.7v9.4h103.1h18.8h37.5h9.4H211h9.4h37.5h18.8h9.4v-9.4
				H276.6z M218.2,28.1l29.2,32.8h-50.5v-14h-9.4V61H137l29.2-32.8h52V28.1z M135.9,42.2v-9.4h13.5l-8.3,9.4
				C141.1,42.2,135.9,42.2,135.9,42.2z M107.8,281.2H56.2v-70.3h51.6V281.2L107.8,281.2z M107.8,154.7H89.1v-9.4h18.8L107.8,154.7
				L107.8,154.7z M107.8,117.2H89.1v-9.4h18.8L107.8,117.2L107.8,117.2z M107.8,79.7H89.1v-9.4h18.8L107.8,79.7L107.8,79.7z
				 M79.7,60.9V89h28.1v9.4H79.7v28.1h28.1v9.4H79.7V164h28.1v18.8h-75v9.4h75v9.4h-75v9.4h14.1v70.3H23.4V9.4h164.1v9.4H162
				l-4.2,4.7h-31.2v28.1h6.2l-8.3,9.4h-7.3h-9.4L79.7,60.9L79.7,60.9z M154.7,281.2h-18.8v-28.1c0-5.2,4.2-9.4,9.4-9.4
				s9.4,4.2,9.4,9.4L154.7,281.2L154.7,281.2z M201.6,281.2h-18.8v-28.1c0-5.2,4.2-9.4,9.4-9.4s9.4,4.2,9.4,9.4L201.6,281.2
				L201.6,281.2z M248.4,281.2h-18.8v-28.1c0-5.2,4.2-9.4,9.4-9.4s9.4,4.2,9.4,9.4L248.4,281.2L248.4,281.2z M267.2,281.2h-9.4
				v-28.1c0-10.3-8.4-18.8-18.8-18.8s-18.8,8.4-18.8,18.8v28.1h-9.4v-28.1c0-10.3-8.4-18.8-18.8-18.8s-18.8,8.4-18.8,18.8v28.1h-9.4
				v-28.1c0-10.3-8.4-18.8-18.8-18.8s-18.8,8.4-18.8,18.8v28.1h-9.4V164.1V136v-9.4V98.4V89V70.3h150v210.9H267.2z"/>
			<path class="st0" d="M164.1,192.2h-37.5v28.1h37.5V192.2z M154.7,210.9h-18.8v-9.4h18.8V210.9z"/>
			<path class="st0" d="M210.9,192.2h-37.5v28.1h37.5V192.2z M201.6,210.9h-18.8v-9.4h18.8V210.9z"/>
			<path class="st0" d="M257.8,192.2h-37.5v28.1h37.5V192.2z M248.4,210.9h-18.8v-9.4h18.8V210.9z"/>
			<path class="st0" d="M164.1,154.7h-37.5v28.1h37.5V154.7z M154.7,173.4h-18.8V164h18.8V173.4z"/>
			<path class="st0" d="M210.9,154.7h-37.5v28.1h37.5V154.7z M201.6,173.4h-18.8V164h18.8V173.4z"/>
			<path class="st0" d="M257.8,154.7h-37.5v28.1h37.5V154.7z M248.4,173.4h-18.8V164h18.8V173.4z"/>
			<path class="st0" d="M164.1,117.2h-37.5v28.1h37.5V117.2z M154.7,135.9h-18.8v-9.4h18.8V135.9z"/>
			<path class="st0" d="M210.9,117.2h-37.5v28.1h37.5V117.2z M201.6,135.9h-18.8v-9.4h18.8V135.9z"/>
			<path class="st0" d="M257.8,117.2h-37.5v28.1h37.5V117.2z M248.4,135.9h-18.8v-9.4h18.8V135.9z"/>
			<path class="st0" d="M164.1,79.7h-37.5v28.1h37.5V79.7z M154.7,98.4h-18.8V89h18.8V98.4z"/>
			<path class="st0" d="M210.9,79.7h-37.5v28.1h37.5V79.7z M201.6,98.4h-18.8V89h18.8V98.4z"/>
			<path class="st0" d="M257.8,79.7h-37.5v28.1h37.5V79.7z M248.4,98.4h-18.8V89h18.8V98.4z"/>
			<path class="st0" d="M32.8,164.1h37.5V136H32.8C32.8,135.9,32.8,164.1,32.8,164.1z M42.2,145.3H61v9.4H42.2V145.3z"/>
			<path class="st0" d="M32.8,126.6h37.5V98.4H32.8V126.6z M42.2,107.8H61v9.4H42.2V107.8z"/>
			<path class="st0" d="M32.8,89.1h37.5V60.9H32.8V89.1z M42.2,70.3H61v9.4H42.2V70.3z"/>
			<path class="st0" d="M32.8,51.6h37.5V23.4H32.8V51.6z M42.2,32.8H61v9.4H42.2V32.8z"/>
			<path class="st0" d="M79.7,51.6h37.5V23.4H79.7V51.6z M89.1,32.8h18.8v9.4H89.1V32.8z"/>
		</g>
	</g>
</g>
</svg>
