<?xml version="1.0" encoding="utf-8"?>
<!-- Generator: Adobe Illustrator 25.0.0, SVG Export Plug-In . SVG Version: 6.00 Build 0)  -->
<svg version="1.1" id="Layer_1" xmlns="http://www.w3.org/2000/svg" xmlns:xlink="http://www.w3.org/1999/xlink" x="0px" y="0px"
	 viewBox="0 0 512 512" style="enable-background:new 0 0 512 512;" xml:space="preserve">
<style type="text/css">
	.st0{fill:#31B4DD;}
</style>
<g>
	<g>
		<path class="st0" d="M256,90.5c-2.9,0-5.3,2.4-5.3,5.3v28.7c0,2.9,2.4,5.3,5.3,5.3c2.9,0,5.3-2.4,5.3-5.3V95.8
			C261.3,92.9,258.9,90.5,256,90.5z"/>
	</g>
</g>
<g>
	<g>
		<path class="st0" d="M195.9,138.5l-13.7-25.2c-1.4-2.6-4.6-3.5-7.2-2.1c-2.6,1.4-3.5,4.6-2.1,7.2l13.7,25.2c1,1.7,2.8,2.8,4.7,2.8
			c0.8,0,1.7-0.2,2.5-0.6C196.3,144.2,197.2,141,195.9,138.5z"/>
	</g>
</g>
<g>
	<g>
		<path class="st0" d="M145,182l-24.1-15.6c-2.5-1.6-5.7-0.9-7.3,1.6c-1.6,2.5-0.9,5.7,1.6,7.3l24.1,15.6c0.9,0.6,1.9,0.8,2.8,0.8
			c1.7,0,3.4-0.8,4.5-2.4C148.2,186.9,147.5,183.6,145,182z"/>
	</g>
</g>
<g>
	<g>
		<path class="st0" d="M337,111.1c-2.6-1.4-5.8-0.5-7.2,2.1l-13.7,25.2c-1.4,2.6-0.5,5.8,2.1,7.2c0.8,0.5,1.7,0.6,2.5,0.6
			c1.9,0,3.7-1,4.7-2.8l13.7-25.2C340.6,115.7,339.6,112.5,337,111.1z"/>
	</g>
</g>
<g>
	<g>
		<path class="st0" d="M398.4,168c-1.6-2.5-4.8-3.2-7.3-1.6L367,182c-2.5,1.6-3.2,4.8-1.6,7.3c1,1.6,2.7,2.4,4.5,2.4
			c1,0,2-0.3,2.8-0.8l24.1-15.6C399.2,173.8,399.9,170.5,398.4,168z"/>
	</g>
</g>
<g>
	<g>
		<path class="st0" d="M321.7,168c-17.1-17.4-40-27.1-64.4-27.5c-25.4-0.3-50.2,10.2-68,28.9c-2,2.1-1.9,5.4,0.2,7.4
			c2.1,2,5.4,1.9,7.4-0.2c15.8-16.6,37.8-25.9,60.2-25.6c21.6,0.3,41.9,8.9,57.1,24.3s23.6,35.8,23.6,57.5
			c0,17.5-5.4,34.1-15.6,48.1c-0.1,0.1-0.2,0.3-0.3,0.4l-0.6,1.1c-2.5,4.2-4.8,8.1-7,11.6c-1.5,2.5-0.6,5.8,1.9,7.2
			c0.8,0.5,1.7,0.7,2.7,0.7c1.8,0,3.6-0.9,4.5-2.6c2.1-3.6,4.4-7.4,6.9-11.6l0.5-0.9c11.4-15.8,17.5-34.5,17.5-54.1
			C348.3,208.4,338.9,185.4,321.7,168z"/>
	</g>
</g>
<g>
	<g>
		<path class="st0" d="M310.9,310.4c-2.6-1.4-5.8-0.3-7.1,2.3c-4.8,9.2-7.6,16.9-9.1,24.8h-77.3c-3.2-16-11.3-29.5-26.3-54.4l-1-1.6
			c-0.1-0.1-0.2-0.3-0.3-0.4c-10.2-14-15.6-30.7-15.6-48.1c0-14.1,3.8-28.1,10.9-40.3c1.5-2.5,0.6-5.8-1.9-7.2
			c-2.5-1.5-5.8-0.6-7.2,1.9c-8,13.9-12.3,29.7-12.3,45.7c0,19.6,6.1,38.3,17.5,54.1l0.8,1.4c15.1,25.1,22.4,37.4,25.2,51.9
			c-4.8,3.2-8.1,8.6-8.1,14.8c0,4.8,1.9,9.1,5,12.4c-3.1,3.2-5,7.5-5,12.4c0,9.7,7.9,17.6,17.6,17.6h7.4
			c3.9,14.1,16.9,24.2,31.9,24.2c15,0,28-10.2,31.9-24.2h7.4c9.7,0,17.6-7.9,17.6-17.6c0-4.8-1.9-9.1-5-12.4c3.1-3.2,5-7.5,5-12.4
			c0-6.2-3.2-11.6-8.1-14.8c1.3-7.2,3.8-14,8.3-22.8C314.5,314.9,313.5,311.8,310.9,310.4z M256,411c-9.2,0-17.3-5.6-20.8-13.7h41.5
			C273.3,405.4,265.2,411,256,411z M280.6,372.7h14.7c3.9,0,7,3.2,7,7c0,3.9-3.2,7-7,7h-78.6c-3.9,0-7-3.2-7-7c0-3.9,3.2-7,7-7h43.1
			c2.9,0,5.3-2.4,5.3-5.3c0-2.9-2.4-5.3-5.3-5.3h-43.1c-3.9,0-7-3.2-7-7c0-3.2,2.1-5.9,5-6.7c0.3-0.1,0.6-0.1,0.8-0.2
			c0.1,0,0.2,0,0.3-0.1c0.3-0.1,0.6-0.1,1-0.1h78.6c0.3,0,0.6,0,1,0.1c0.1,0,0.2,0,0.3,0.1c0.3,0.1,0.6,0.1,0.8,0.2
			c2.9,0.8,5,3.6,5,6.7c0,3.9-3.2,7-7,7h-14.7c-2.9,0-5.3,2.4-5.3,5.3C275.3,370.3,277.7,372.7,280.6,372.7z"/>
	</g>
</g>
</svg>
