<?xml version="1.0" encoding="utf-8"?>
<!-- Generator: Adobe Illustrator 25.0.0, SVG Export Plug-In . SVG Version: 6.00 Build 0)  -->
<svg version="1.1" id="Layer_1" xmlns="http://www.w3.org/2000/svg" xmlns:xlink="http://www.w3.org/1999/xlink" x="0px" y="0px"
	 viewBox="0 0 80 80" style="enable-background:new 0 0 80 80;" xml:space="preserve">
<style type="text/css">
	.st0{fill:#FFFFFF;}
	.st1{fill:#193478;}
</style>
<rect x="-2.7" y="-2.9" class="st0" width="88.6" height="85"/>
<g>
	<g id="Group_41" transform="translate(-3508.751 -1856.253)">
		<g id="Group_36">
			<path id="Path_67" class="st1" d="M3543.2,1903.8L3543.2,1903.8c-0.3,0-0.4-0.3-0.4-0.5l0,0l0.2-4.2c0-0.3,0.3-0.4,0.5-0.4
				s0.4,0.3,0.4,0.5l0,0l-0.2,4.2C3543.7,1903.7,3543.5,1903.8,3543.2,1903.8z"/>
		</g>
		<g id="Group_37">
			<path id="Path_68" class="st1" d="M3553.2,1903.8c-0.3,0-0.4-0.2-0.4-0.4l-0.2-4.2c0-0.3,0.2-0.5,0.4-0.5c0.3,0,0.5,0.2,0.5,0.4
				c0,0,0,0,0,0.1l0.2,4.2C3553.6,1903.7,3553.4,1903.8,3553.2,1903.8L3553.2,1903.8z"/>
		</g>
		<g id="Group_38">
			<path id="Path_69" class="st1" d="M3554.8,1903.8h-13.3c-0.9,0-1.8-0.8-1.8-1.8c0-0.1,0-0.1,0-0.2l0.5-4.6
				c0.2-1.3,1.3-2.3,2.6-2.3h4c0.3,0,0.4,0.2,0.4,0.4v0.1l-0.1,0.3c0,0.3,0.1,0.5,0.2,0.7c0.3,0.4,0.9,0.4,1.3,0.1
				c0.1-0.1,0.1-0.1,0.1-0.1c0.1-0.2,0.2-0.4,0.2-0.7l-0.1-0.3c0-0.3,0.1-0.5,0.4-0.5h0.1h4c1.3,0,2.5,0.9,2.6,2.3l0.5,4.7
				c0.1,0.9-0.6,1.8-1.6,2C3555,1903.8,3554.9,1903.8,3554.8,1903.8L3554.8,1903.8z M3542.9,1895.9c-0.9,0-1.6,0.6-1.8,1.5l-0.5,4.6
				c-0.1,0.4,0.3,0.9,0.8,0.9h0.1h13.3c0.4,0,0.8-0.4,0.8-0.8v-0.1l-0.5-4.6c-0.1-0.9-0.9-1.5-1.8-1.5h-3.5c0,0.4-0.1,0.9-0.4,1.3
				c-0.6,0.8-1.8,0.9-2.5,0.2c-0.1-0.1-0.1-0.1-0.2-0.2c-0.3-0.4-0.4-0.8-0.4-1.3L3542.9,1895.9z"/>
		</g>
		<g id="Group_39">
			<path id="Path_70" class="st1" d="M3548.2,1897.8c-1,0-1.8-0.8-1.8-1.8c0-0.1,0-0.1,0-0.2l0.2-1.7c0-0.3,0.3-0.4,0.5-0.4h0.1
				c0.3,0.1,0.4,0.1,0.7,0.1h0.6c0.3,0,0.5-0.1,0.7-0.1c0.3-0.1,0.5,0.1,0.6,0.3v0.1l0.2,1.7l0,0c0.1,1-0.6,1.9-1.6,2
				C3548.3,1897.8,3548.3,1897.8,3548.2,1897.8z M3547.5,1894.7l-0.1,1.2c-0.1,0.5,0.3,0.9,0.8,1c0.5,0.1,0.9-0.3,1-0.8
				c0-0.1,0-0.1,0-0.2l-0.1-1.2c-0.1,0-0.3,0-0.4,0h-0.6C3547.7,1894.8,3547.6,1894.7,3547.5,1894.7L3547.5,1894.7z"/>
		</g>
		<g id="Group_40">
			<path id="Path_71" class="st1" d="M3548.5,1894.8h-0.6c-2,0-3.5-1.6-3.5-3.5v-1.1c0-1.6,1.3-3,3-3h1.7c1.6,0,3,1.3,3,3v1.1
				C3552,1893.2,3550.4,1894.7,3548.5,1894.8L3548.5,1894.8z M3547.3,1888c-1.1,0-2.1,0.9-2.1,2.1v1.1c0,1.5,1.1,2.6,2.6,2.6h0.6
				c1.5,0,2.6-1.1,2.6-2.6v-1.1c0-1.1-0.9-2.1-2.1-2.1H3547.3z"/>
		</g>
	</g>
	<g id="Group_61" transform="translate(-2496.532 -1550.159)">
		<g id="Group_48" transform="translate(2527.005 1553.367)">
			<g id="Group_47">
				<path id="Path_74" class="st1" d="M13.6,54.6c-0.3,0-0.6-0.3-0.6-0.6c0-0.3,0.2-0.5,0.4-0.6c9.2-2.1,15-11.3,12.9-20.6
					c-1.3-5.9-5.6-10.5-11.3-12.4c-0.3-0.1-0.5-0.4-0.4-0.8c0.1-0.3,0.4-0.5,0.8-0.4l0,0c9.6,3.2,14.8,13.6,11.6,23.2
					c-2.1,6.1-7.1,10.7-13.3,12C13.7,54.6,13.7,54.6,13.6,54.6z"/>
			</g>
		</g>
		<g id="Group_50" transform="translate(2496.532 1552.719)">
			<g id="Group_49">
				<path id="Path_75" class="st1" d="M32.4,54c-0.1,0-0.2,0-0.3-0.1c-9.1-4.4-12.9-15.4-8.5-24.5c2.4-5,7-8.6,12.4-9.8
					c0.3-0.1,0.6,0.1,0.7,0.4c0.1,0.3-0.1,0.6-0.4,0.7c-9.2,2.1-15,11.3-12.9,20.6c1.1,5,4.5,9.3,9.3,11.6c0.3,0.1,0.4,0.5,0.3,0.8
					C32.9,53.9,32.6,54,32.4,54z"/>
			</g>
		</g>
		<g id="Group_55" transform="translate(2511.177 1550.159)">
			<g id="Group_52">
				<g id="Group_51">
					<path id="Path_76" class="st1" d="M21.5,23.3c-0.1,0-0.2,0-0.3-0.1l-3.3-1.8c-0.3-0.2-0.4-0.5-0.3-0.8c0.1-0.3,0.5-0.4,0.8-0.3
						l3.3,1.8c0.3,0.1,0.4,0.5,0.3,0.8C22,23.2,21.8,23.3,21.5,23.3L21.5,23.3z"/>
				</g>
			</g>
			<g id="Group_54" transform="translate(2.167 2.552)">
				<g id="Group_53">
					<path id="Path_77" class="st1" d="M17.6,24c-0.1,0-0.2,0-0.3-0.1c-0.3-0.1-0.4-0.5-0.3-0.8l1.8-3.3c0.1-0.3,0.5-0.4,0.8-0.3
						s0.4,0.5,0.3,0.8l0,0l-1.8,3.4C18,24,17.8,24,17.6,24z"/>
				</g>
			</g>
		</g>
		<g id="Group_60" transform="translate(2526.972 1596.568)">
			<g id="Group_57">
				<g id="Group_56">
					<path id="Path_78" class="st1" d="M13.6,11.4c-0.3,0-0.6-0.3-0.6-0.6c0-0.1,0-0.2,0.1-0.3L15,7.2c0.2-0.3,0.5-0.4,0.8-0.2
						c0.3,0.2,0.4,0.5,0.2,0.8l0,0l-1.9,3.3C14.1,11.3,13.9,11.4,13.6,11.4z"/>
				</g>
			</g>
			<g id="Group_59" transform="translate(0 4.653)">
				<g id="Group_58">
					<path id="Path_79" class="st1" d="M17,8.6c-0.1,0-0.2,0-0.3-0.1l-3.3-1.9c-0.3-0.2-0.4-0.6-0.2-0.8c0.2-0.3,0.5-0.4,0.8-0.2
						l3.3,1.9c0.3,0.2,0.4,0.5,0.2,0.8C17.3,8.5,17.1,8.6,17,8.6z"/>
				</g>
			</g>
		</g>
	</g>
</g>
</svg>
