<?xml version="1.0" encoding="utf-8"?>
<!-- Generator: Adobe Illustrator 25.0.0, SVG Export Plug-In . SVG Version: 6.00 Build 0)  -->
<svg version="1.1" id="Layer_1" xmlns="http://www.w3.org/2000/svg" xmlns:xlink="http://www.w3.org/1999/xlink" x="0px" y="0px"
	 viewBox="0 0 80 80" style="enable-background:new 0 0 80 80;" xml:space="preserve">
<style type="text/css">
	.st0{fill:#FFFFFF;}
	.st1{fill:#193478;}
</style>
<rect x="-20.1" y="-31.5" class="st0" width="119.5" height="130.7"/>
<g id="icon_edit" transform="translate(-0.2 -0.3)">
	<rect id="XMLID_86_" x="27.6" y="23.1" class="st1" width="24.8" height="1.4"/>
	<rect id="XMLID_98_" x="22.6" y="28" class="st1" width="1.4" height="24.8"/>
	<g id="XMLID_73_" transform="translate(11.114 11.214)">
		<rect id="XMLID_78_" x="44.9" y="16.8" class="st1" width="1.4" height="24.8"/>
		<rect id="XMLID_101_" x="16.5" y="45.2" class="st1" width="24.8" height="1.4"/>
	</g>
	<g id="XMLID_179_" transform="translate(0.2 0.3)">
		<path id="XMLID_180_" class="st1" d="M28.2,28.5h-10v-10h10V28.5z M19.6,27h7.2v-7.2h-7.2V27z"/>
	</g>
	<g id="XMLID_175_" transform="translate(39.419 0.3)">
		<path id="XMLID_176_" class="st1" d="M22.4,28.5h-10v-10h10V28.5z M13.8,27h7.1v-7.2h-7.1V27z"/>
	</g>
	<g id="XMLID_171_" transform="translate(0.2 39.519)">
		<path id="XMLID_172_" class="st1" d="M28.2,22.7h-10v-10h10V22.7z M19.6,21.2h7.2v-7.2h-7.2V21.2z"/>
	</g>
	<g id="XMLID_167_" transform="translate(39.419 39.519)">
		<path id="XMLID_168_" class="st1" d="M22.4,22.7h-10v-10h10V22.7z M13.8,21.2h7.1v-7.2h-7.1V21.2z"/>
	</g>
	<g id="XMLID_97_" transform="translate(14.859 18.815)">
		
			<rect id="XMLID_100_" x="20.5" y="25.5" transform="matrix(0.7071 -0.7071 0.7071 0.7071 -10.7829 26.4809)" class="st1" width="12.1" height="1.4"/>
		
			<rect id="XMLID_99_" x="14.7" y="19.8" transform="matrix(0.7071 -0.7071 0.7071 0.7071 -8.3959 20.6762)" class="st1" width="12.1" height="1.4"/>
	</g>
	<path id="XMLID_163_" class="st1" d="M42.5,33.3l2.2-2.2c1.4-1.3,3.5-1.3,4.8,0.1c1.3,1.3,1.3,3.4,0,4.7l-2.2,2.2l1,1l2.2-2.2
		c1.8-1.9,1.8-5-0.1-6.9c-1.9-1.8-4.8-1.8-6.8,0l-2.2,2.3L42.5,33.3z"/>
	<g id="XMLID_76_" transform="translate(23.303 14.695)">
		<path id="XMLID_118_" class="st1" d="M23.7,27.9c-0.4,0-0.8-0.1-1-0.4l-7.6-7.6c-0.3-0.3-0.4-0.6-0.4-1c0-0.4,0.1-0.8,0.4-1
			l1.2-1.2c0.5-0.5,1.5-0.5,2,0l0,0l7.6,7.6c0.3,0.3,0.4,0.6,0.4,1c0,0.4-0.1,0.8-0.4,1l-1.2,1.2C24.5,27.8,24.1,28,23.7,27.9z
			 M23.7,26.5L23.2,27L23.7,26.5z M17.3,17.7l-1.2,1.2l7.6,7.6l1.2-1.2L17.3,17.7z"/>
	</g>
	<path id="XMLID_155_" class="st1" d="M37.9,49.6L31,42.7L29.7,44L27.6,53l8.9-2.1L37.9,49.6z M31,44.9l4.8,4.8l-6.3,1.4L31,44.9z"
		/>
</g>
</svg>
