<?xml version="1.0" encoding="utf-8"?>
<!-- Generator: Adobe Illustrator 25.0.0, SVG Export Plug-In . SVG Version: 6.00 Build 0)  -->
<svg version="1.1" id="Layer_1" xmlns="http://www.w3.org/2000/svg" xmlns:xlink="http://www.w3.org/1999/xlink" x="0px" y="0px"
	 viewBox="0 0 80 80" style="enable-background:new 0 0 80 80;" xml:space="preserve">
<style type="text/css">
	.st0{fill:#FFFFFF;}
	.st1{fill:#193478;}
</style>
<rect x="-13" y="-50.3" class="st0" width="118" height="159.8"/>
<g>
	<g>
		<path class="st1" d="M59.9,32.5l-1.4-2.1c-0.1-0.2-0.4-0.3-0.6-0.3l-2.7,0.1c-0.2,0-0.4,0.1-0.6,0.3l-0.2,0.4l-2.8,1.8
			c-0.2,0.1-0.3,0.3-0.3,0.6L51.2,34h-1.1l-2.2-1.7c-0.2-0.1-0.4-0.2-0.6-0.1c-0.2,0.1-0.4,0.2-0.5,0.4l-0.9,1.9l-8.5-3.6l0.5-1.9
			c0.1-0.4-0.1-0.7-0.4-0.9l-0.7-0.2L35.6,26l0.2-0.1c0.2-0.1,0.4-0.2,0.5-0.4c0.1-0.2,0.1-0.4-0.1-0.6l-0.4-0.7l1.5-3.2
			c0.2-0.3,0.1-0.7-0.2-0.9l-1.4-0.9c-0.1-0.1-0.2-0.1-0.4-0.1l-3,0.2l-3.7-1.6c-0.2-0.1-0.4-0.1-0.7,0.1l-2,1.2
			c-0.2,0.1-0.3,0.3-0.4,0.6c0,0.2,0.1,0.4,0.2,0.6l1.1,1l0.1,2.5c0,0.2,0.1,0.4,0.2,0.5l1.9,2l-1.5,2.7c-0.1,0.1-0.1,0.2-0.1,0.3
			v0.3l-2.7,2.9l-1.4-0.4c-0.4-0.1-0.8,0.1-0.9,0.4l-0.9,2.2c-0.1,0.3,0,0.6,0.2,0.8l0.4,0.3l1,2V38l-3,1.1
			c-0.2,0.1-0.4,0.4-0.5,0.6c0,0.3,0.1,0.6,0.4,0.7l0.9,0.4c-0.1,0.1-0.2,0.2-0.2,0.4c-0.1,0.2,0,0.4,0.1,0.6l1.1,1.6
			c0.1,0.1,0.2,0.2,0.3,0.2l1.8,0.9c0.3,0.1,0.7,0.1,0.9-0.2l0.8-1.1l0.4,1l-0.2,1.4c0,0.1,0,0.2,0.1,0.4l5.8,16
			c0.1,0.3,0.4,0.5,0.7,0.5c0.1,0,0.2,0,0.2-0.1l1.4-0.6c0.2-0.1,0.3-0.2,0.4-0.4l0.3-0.6l0.5-0.6l1.2-1.5c0.1-0.1,0.1-0.2,0.2-0.3
			l0.7-3.6c0-0.1,0-0.2,0-0.4l-0.4-1.1l0.7-2l0.6-0.3l0.7-0.1c0.2,0,0.4-0.1,0.5-0.3l0.9-1.2c0.3-0.1,0.6-0.2,0.9-0.4
			c0.2-0.2,0.6-0.6,0.8-0.8c0.2-0.2,0.4-0.4,0.6-0.7s0.2-0.6,0.4-0.9l2.5-1.4c0.2-0.1,0.3-0.3,0.4-0.6l0.1-1L47,43l1.3,0.2
			c0.2,0.1,0.5-0.1,0.7-0.2c0.2-0.2,0.2-0.4,0.2-0.7L48,37.9l1.5-0.6l1.1,0.7c0.1,0.1,0.2,0.1,0.3,0.1l0.7,0.1l-0.9,1.2
			c-0.1,0.2-0.2,0.5-0.1,0.7c0.1,0.2,0.4,0.4,0.7,0.4h0.6l1.3,1.8c0.2,0.2,0.5,0.4,0.7,0.2c0.3-0.1,0.5-0.3,0.6-0.6l0.4-2.2l0.6,0.1
			c0.2,0.1,0.4,0,0.6-0.1s0.2-0.3,0.3-0.5l0.4-2.5l0.4-0.4c0.1-0.1,0.1-0.2,0.1-0.4l0.1-0.4l2.1-0.7c0.2-0.1,0.4-0.3,0.5-0.6
			l0.2-1.2C60.1,32.9,60.1,32.7,59.9,32.5z M58.5,33.5l-2.2,0.7c-0.2,0.1-0.4,0.3-0.5,0.6l-0.1,0.7l-0.3,0.6
			c-0.1,0.1-0.1,0.2-0.1,0.3L55,38.3l-0.6-0.1c-0.2-0.1-0.4,0-0.6,0.1c-0.2,0.1-0.2,0.3-0.3,0.5L53.3,40l-0.5-0.7
			c-0.1-0.1-0.1-0.1-0.2-0.2l0.8-1.2c0.1-0.2,0.2-0.5,0.1-0.7c-0.1-0.2-0.3-0.4-0.6-0.4l-1.9-0.2l-1.2-0.8c-0.2-0.1-0.4-0.1-0.6-0.1
			l-2.5,1c-0.3,0.1-0.5,0.5-0.4,0.9l1.1,4L47,41.6c-0.2-0.1-0.4,0-0.6,0.1l-1.5,1.1c-0.1,0.1-0.2,0.3-0.2,0.5l-0.1,0.9l-2.5,1.4
			c-0.1,0.1-0.2,0.2-0.3,0.4l-0.5,1.1L40.4,48l-0.7,0.2c-0.1,0.1-0.2,0.1-0.3,0.2l-0.8,1.1L38,49.6c-0.1,0-0.2,0.1-0.3,0.1l-0.8,0.6
			c-0.1,0.1-0.2,0.2-0.3,0.4l-0.8,2.5c-0.1,0.1-0.1,0.3,0,0.4l0.4,1.1l-0.6,3.3l-1.1,1.4L33.9,60c-0.1,0.1-0.1,0.1-0.1,0.1l-0.2,0.4
			l-0.5,0.2l-5.6-15.1l0.2-1.4c0-0.1,0-0.3-0.1-0.4l-0.6-1.4l0.1-1.2c0-0.3-0.2-0.6-0.5-0.7c-0.3-0.1-0.6,0-0.8,0.2l-1.5,2l-1.1-0.6
			l-0.5-0.9l0.4-0.2c0.2-0.1,0.4-0.4,0.4-0.6c0-0.2-0.2-0.5-0.4-0.6l-0.4-0.2l-0.3-0.1l1.8-0.7c0.3-0.1,0.5-0.4,0.5-0.7v-1.1
			c0-0.1,0-0.2-0.1-0.3l-1.1-2.3c-0.1-0.1-0.1-0.2-0.2-0.2l-0.1-0.1l0.4-1l1.1,0.4c0.2,0.1,0.6,0,0.7-0.2l3.2-3.5
			c0.1-0.1,0.2-0.3,0.2-0.5v-0.4l1.7-3c0.1-0.2,0.1-0.6-0.1-0.9l-2-2.2l-0.1-2.5c0-0.2-0.1-0.4-0.2-0.5l-0.6-0.6l0.8-0.5l3.5,1.5
			c0.1,0.1,0.2,0.1,0.3,0.1l3-0.2l0.6,0.4l-1.4,2.9c-0.1,0.2-0.1,0.5,0,0.7l0.1,0.2l-0.2,0.1c-0.2,0.1-0.4,0.2-0.5,0.4
			c-0.1,0.2-0.1,0.4,0.1,0.7l1.9,2.8c0.1,0.1,0.2,0.2,0.4,0.3l0.3,0.1L35.7,31c-0.1,0.4,0.1,0.7,0.4,0.9l9.8,4.1
			c0.4,0.1,0.8,0,0.9-0.4l0.8-1.7l1.6,1.3c0.1,0.1,0.3,0.2,0.4,0.2h2c0.4,0,0.7-0.3,0.7-0.7l0.1-0.9l2.7-1.7
			c0.1-0.1,0.2-0.1,0.2-0.2l0.1-0.2l1.9-0.1l1,1.5L58.5,33.5z"/>
	</g>
</g>
</svg>
