<?xml version="1.0" encoding="utf-8"?>
<!-- Generator: Adobe Illustrator 25.0.0, SVG Export Plug-In . SVG Version: 6.00 Build 0)  -->
<svg version="1.1" id="Layer_1" xmlns="http://www.w3.org/2000/svg" xmlns:xlink="http://www.w3.org/1999/xlink" x="0px" y="0px"
	 viewBox="0 0 800 800" style="enable-background:new 0 0 800 800;" xml:space="preserve">
<style type="text/css">
	.st0{fill:none;}
</style>
<g id="Layer_2_1_">
	<g id="invisible_box">
		<rect x="166.7" y="166.7" class="st0" width="466.7" height="466.7"/>
	</g>
	<g id="icons_Q2">
		<circle cx="400" cy="400" r="19.4"/>
		<circle cx="400" cy="322.2" r="19.4"/>
		<circle cx="400" cy="244.4" r="19.4"/>
		<circle cx="400" cy="555.6" r="19.4"/>
		<circle cx="400" cy="477.8" r="19.4"/>
		<circle cx="477.8" cy="400" r="19.4"/>
		<circle cx="555.6" cy="400" r="19.4"/>
		<circle cx="244.4" cy="400" r="19.4"/>
		<circle cx="322.2" cy="400" r="19.4"/>
		<path d="M575,283.3c-14-0.1-27,7.3-34,19.4h-43.8V259c18.6-10.7,25-34.5,14.2-53.1c-10.7-18.6-34.5-25-53.1-14.2
			c-18.6,10.7-25,34.5-14.2,53.1c3.4,5.9,8.3,10.8,14.2,14.2v82.6H541c10.7,18.6,34.5,25,53.1,14.2c18.6-10.7,25-34.5,14.2-53.1
			C601.4,290.9,588.8,283.5,575,283.3z M477.8,244.4c-10.7,0-19.4-8.7-19.4-19.4c0-10.7,8.7-19.4,19.4-19.4
			c10.7,0,19.4,8.7,19.4,19.4C497.2,235.7,488.5,244.4,477.8,244.4z M575,341.7c-10.7,0-19.4-8.7-19.4-19.4
			c0-10.7,8.7-19.4,19.4-19.4c10.7,0,19.4,8.7,19.4,19.4C594.4,333,585.7,341.7,575,341.7z"/>
		<path d="M186.1,322.2c-0.3,21.5,16.8,39.2,38.3,39.5c14.4,0.2,27.7-7.5,34.7-20.1h82.6V259c18.6-10.7,25-34.5,14.2-53.1
			s-34.5-25-53.1-14.2c-18.6,10.7-25,34.5-14.2,53.1c3.4,5.9,8.3,10.8,14.2,14.2v43.8H259c-10.4-18.8-34.1-25.6-52.9-15.2
			C193.6,294.5,185.9,307.8,186.1,322.2z M302.8,225c0-10.7,8.7-19.4,19.4-19.4c10.7,0,19.4,8.7,19.4,19.4
			c0,10.7-8.7,19.4-19.4,19.4C311.5,244.4,302.8,235.7,302.8,225z M205.6,322.2c0-10.7,8.7-19.4,19.4-19.4
			c10.7,0,19.4,8.7,19.4,19.4c0,10.7-8.7,19.4-19.4,19.4C214.3,341.7,205.6,333,205.6,322.2z"/>
		<path d="M575,438.9c-14-0.1-27,7.3-34,19.4h-82.6V541c-18.6,10.7-25,34.5-14.2,53.1s34.5,25,53.1,14.2
			c18.6-10.7,25-34.5,14.2-53.1c-3.4-5.9-8.3-10.8-14.2-14.2v-43.8H541c10.7,18.6,34.5,25,53.1,14.2c18.6-10.7,25-34.5,14.2-53.1
			C601.4,446.4,588.8,439,575,438.9z M477.8,594.4c-10.7,0-19.4-8.7-19.4-19.4c0-10.7,8.7-19.4,19.4-19.4c10.7,0,19.4,8.7,19.4,19.4
			C497.2,585.7,488.5,594.4,477.8,594.4z M575,497.2c-10.7,0-19.4-8.7-19.4-19.4c0-10.7,8.7-19.4,19.4-19.4
			c10.7,0,19.4,8.7,19.4,19.4C594.4,488.5,585.7,497.2,575,497.2z"/>
		<path d="M341.7,541v-82.6H259c-10.7-18.6-34.5-25-53.1-14.2s-25,34.5-14.2,53.1c10.7,18.6,34.5,25,53.1,14.2
			c5.9-3.4,10.8-8.3,14.2-14.2h43.8V541c-18.6,10.7-25,34.5-14.2,53.1c10.7,18.6,34.5,25,53.1,14.2c18.6-10.7,25-34.5,14.2-53.1
			C352.5,549.3,347.6,544.4,341.7,541z M225,497.2c-10.7,0-19.4-8.7-19.4-19.4c0-10.7,8.7-19.4,19.4-19.4c10.7,0,19.4,8.7,19.4,19.4
			C244.4,488.5,235.7,497.2,225,497.2z M322.2,594.4c-10.7,0-19.4-8.7-19.4-19.4c0-10.7,8.7-19.4,19.4-19.4
			c10.7,0,19.4,8.7,19.4,19.4C341.7,585.7,333,594.4,322.2,594.4z"/>
	</g>
</g>
</svg>
