<?xml version="1.0" encoding="utf-8"?>
<!-- Generator: Adobe Illustrator 25.0.0, SVG Export Plug-In . SVG Version: 6.00 Build 0)  -->
<svg version="1.1" id="Layer_1" xmlns="http://www.w3.org/2000/svg" xmlns:xlink="http://www.w3.org/1999/xlink" x="0px" y="0px"
	 viewBox="0 0 80 80" style="enable-background:new 0 0 80 80;" xml:space="preserve">
<style type="text/css">
	.st0{fill:#FFFFFF;}
	.st1{fill:#193478;}
</style>
<rect x="-19.6" y="-10.2" class="st0" width="118.8" height="106.2"/>
<path id="Icon_item_application_maschine_dark_grey" class="st1" d="M44.9,59c-1.2-0.1-2.2-1.1-2.2-2.3v-1.9c0-1,0.8-1.7,1.7-1.7
	l0,0H48c0.1,0,0.2-0.1,0.2-0.2v-0.1c-1.3-1.7-2.8-3.2-4.6-4.6c-0.5-0.4-1-0.5-1.6-0.5h-4.1c-0.6,0-1.1,0.2-1.6,0.5h-0.1
	c-1.7,1.3-3.3,2.9-4.6,4.7v0.1c0,0.1,0.1,0.1,0.1,0.1l0.1,0.1h3.5c1,0,1.7,0.8,1.7,1.7v1.6c0,1.2-1,2.2-2.2,2.3h-9.3
	c-1.2,0-2.3-0.5-3.2-1.3c-0.9-0.8-1.3-2-1.3-3.2V45c0.1-1.2,1.1-2.2,2.3-2.2H25c1,0,1.7,0.8,1.7,1.7l0,0v3.6
	c0.1,0.1,0.1,0.1,0.2,0.1s0.1,0,0.1-0.1c1.7-1.3,3.2-2.9,4.5-4.7c0.4-0.5,0.5-1,0.5-1.6v-4.1c0-0.6-0.2-1.1-0.5-1.6v-0.1
	c-1.3-1.7-2.8-3.2-4.6-4.5h-0.1c-0.1,0-0.1,0-0.1,0.1l0,0l-0.1,0.2v3.5c0,0.9-0.7,1.7-1.7,1.7h-0.1h-1.6c-1.2,0-2.2-1-2.3-2.2v-9.3
	c0-2.5,2-4.6,4.6-4.6H35c1.2,0.1,2.2,1.1,2.2,2.3V25c0,1-0.8,1.7-1.7,1.7h-3.6c-0.1,0-0.1,0-0.2,0.1c-0.1,0.1-0.1,0.1,0,0.2
	c0,0,0,0,0.1,0c1.3,1.7,2.9,3.2,4.6,4.6h0.1c0.5,0.4,1,0.5,1.6,0.5h4.1c0.6,0,1.1-0.2,1.6-0.5c1.7-1.3,3.3-2.8,4.6-4.6v-0.1
	c0-0.1-0.1-0.1-0.1-0.1h-3.7c-1,0-1.7-0.8-1.7-1.7l0,0v-1.7c0-1.3,1-2.3,2.2-2.3h9.5c2.5,0,4.4,2,4.5,4.4c0,0.1,0,0.1,0,0.1v0.1
	l-0.2,0.1v9.4c-0.1,1.2-1.1,2.2-2.3,2.2h-1.7c-1,0-1.7-0.8-1.7-1.7V32c0-0.1-0.1-0.1-0.1-0.1h-0.1c-1.7,1.3-3.2,2.8-4.6,4.5v0.1
	c-0.4,0.5-0.5,1.1-0.5,1.7v4.1c0,0.6,0.2,1.1,0.5,1.6c1.3,1.7,2.9,3.3,4.7,4.6c0.1,0.1,0.1,0.1,0.1,0.1h0.1v-3.7
	c0-1,0.8-1.7,1.7-1.7h1.8c1.2,0,2.2,1,2.3,2.2v9.5c0,1.3-0.5,2.4-1.4,3.3c-0.8,0.8-1.9,1.3-3.1,1.3h-9.7V59z M44.6,55
	C44.5,55,44.5,55,44.6,55L44.6,55l-0.1,1.7c0,0.3,0.2,0.6,0.5,0.7h9.5c0.7,0,1.5-0.2,2-0.8c0.5-0.5,0.8-1.3,0.8-2V45
	c-0.1-0.3-0.4-0.5-0.7-0.5H55c-0.1,0-0.1,0-0.1,0.1l0,0v3.5c0,0.4-0.1,0.8-0.4,1.1c-0.3,0.5-0.8,0.7-1.4,0.7c-0.4,0-0.8-0.1-1.1-0.4
	c-1.9-1.4-3.5-3.1-4.9-4.9c-0.5-0.8-0.8-1.7-0.8-2.7v-4c0-1,0.3-1.9,0.8-2.6c1.4-1.9,3.1-3.5,5-4.9c0.3-0.2,0.7-0.3,1-0.4h0.1
	c1,0.1,1.7,0.8,1.7,1.8v3.5c0,0.1,0.1,0.1,0.1,0.1h1.4c0.4,0,0.6-0.2,0.7-0.6v-9.4c0.1-1.6-1.2-2.8-2.7-2.9h-0.1h-9.6
	c-0.2,0-0.5,0.4-0.5,0.7V25c0,0.1,0,0.1,0.1,0.1l0,0H48c0.4,0,0.7,0.1,1,0.2c0.4,0.3,0.6,0.7,0.7,1.2c0.1,0.5,0,1.1-0.4,1.4
	c-1.4,1.9-3,3.5-4.9,4.9c-0.7,0.5-1.6,0.8-2.5,0.8h-4.2c-0.9,0-1.7-0.3-2.5-0.8c-1.9-1.4-3.5-3.1-4.9-4.9l-0.1-0.1
	c-0.2-0.3-0.4-0.7-0.4-1.1c0-1,0.8-1.7,1.7-1.7h0.1h3.5c0.1,0,0.1,0,0.1-0.1l0,0v-1.7c0-0.3-0.2-0.6-0.5-0.7h-9.4
	c-1.6,0-2.9,1.3-2.9,2.8l0,0l0.1,9.5c0,0.3,0.2,0.5,0.5,0.5h1.7c0.1,0,0.1-0.1,0.1-0.1v-3.5c0-0.4,0.2-0.8,0.5-1.1
	c0.3-0.4,0.7-0.6,1.1-0.7h0.2c0.4,0,0.8,0.1,1.1,0.4c1.9,1.4,3.5,3.1,4.9,4.9c0.5,0.8,0.8,1.7,0.8,2.6v4c0,1-0.3,1.9-0.8,2.7
	c-1.4,1.9-3.1,3.5-4.9,4.9c-0.8,0.6-1.9,0.5-2.5-0.2C25.1,49,25,48.6,25,48.2v-3.5c0-0.1,0-0.1-0.1-0.1l0,0h-1.7
	c-0.3,0-0.5,0.2-0.5,0.5l0,0l-0.1,9.5c0,1.6,1.3,2.8,2.8,2.8H35c0.3-0.1,0.5-0.4,0.5-0.7v-1.7c0-0.1-0.1-0.1-0.1-0.1h-3.6
	c-0.8,0-1.6-0.6-1.7-1.4c-0.1-0.5,0.1-1,0.4-1.3c1.4-1.9,3-3.5,4.9-4.9c0.8-0.5,1.7-0.8,2.6-0.8H42c1,0,1.9,0.3,2.7,0.8
	c1.9,1.4,3.5,3.1,4.9,4.9c0.2,0.3,0.3,0.7,0.4,1c0,1-0.8,1.8-1.8,1.8l0,0h-3.5L44.6,55L44.6,55z M39.9,43.9c-2.2,0-4-1.7-4-4
	c0-2.2,1.8-4,4-3.9c2.2,0,3.9,1.7,3.9,3.8C43.9,42.1,42.2,43.9,39.9,43.9z M39.9,37.8c-1.3,0-2.3,1-2.3,2.3s1,2.3,2.3,2.3
	c1.3,0,2.3-1,2.3-2.3l0,0C42.2,38.8,41.3,37.8,39.9,37.8C40,37.8,40,37.8,39.9,37.8z"/>
</svg>
