<?xml version="1.0" encoding="utf-8"?>
<!-- Generator: Adobe Illustrator 25.0.0, SVG Export Plug-In . SVG Version: 6.00 Build 0)  -->
<svg version="1.1" id="Layer_1" xmlns="http://www.w3.org/2000/svg" xmlns:xlink="http://www.w3.org/1999/xlink" x="0px" y="0px"
	 viewBox="0 0 80 80" style="enable-background:new 0 0 80 80;" xml:space="preserve">
<style type="text/css">
	.st0{fill:#FFFFFF;}
	.st1{fill:#193478;}
</style>
<rect x="-0.3" y="-0.5" class="st0" width="80.3" height="80.5"/>
<g>
	<g>
		<g>
			<path class="st1" d="M46.2,48.5h-1c-0.4,0-0.8,0.3-0.8,0.8s0.3,0.8,0.8,0.8h1c0.4,0,0.8-0.3,0.8-0.8S46.6,48.5,46.2,48.5z"/>
		</g>
	</g>
	<g>
		<g>
			<path class="st1" d="M42.1,48.5H28.2c-0.4,0-0.8,0.3-0.8,0.8s0.3,0.8,0.8,0.8h13.9c0.4,0,0.8-0.3,0.8-0.8S42.5,48.5,42.1,48.5z"
				/>
		</g>
	</g>
	<g>
		<g>
			<path class="st1" d="M55.4,22.5c0-0.4-0.3-0.7-0.8-0.7h-4.4c-0.4,0-0.7,0.3-0.8,0.7L49,44.7l-11.7-5.2c-0.2-0.1-0.5-0.1-0.7,0.1
				c-0.2,0.2-0.3,0.4-0.3,0.6v4.4l-11.6-5.1c-0.2-0.1-0.5-0.1-0.7,0.1c-0.1,0.2-0.2,0.4-0.2,0.7v17.3c0,0.4,0.3,0.8,0.8,0.8h31
				c0.2,0,0.4-0.1,0.5-0.2s0.2-0.3,0.2-0.5L55.4,22.5z M37.9,41.4l8.4,3.7h-8.4V41.4z M25.3,41.4l8.4,3.7h-8.4V41.4z M48.8,56.8
				H25.3V46.5h11.9H49L48.8,56.8z M51,23.2h3l0.1,2.6H51L51,23.2z M51,27.2h3.2l0.1,5h-3.4L51,27.2z M50.3,56.8l0.5-23.1h3.4
				l0.5,23.1H50.3z"/>
		</g>
	</g>
</g>
</svg>
