<?xml version="1.0" encoding="utf-8"?>
<!-- Generator: Adobe Illustrator 25.0.0, SVG Export Plug-In . SVG Version: 6.00 Build 0)  -->
<svg version="1.1" id="Layer_1" xmlns="http://www.w3.org/2000/svg" xmlns:xlink="http://www.w3.org/1999/xlink" x="0px" y="0px"
	 viewBox="0 0 800 800" style="enable-background:new 0 0 800 800;" xml:space="preserve">
<style type="text/css">
	.st0{fill:none;stroke:#1C274C;stroke-width:50;stroke-miterlimit:133.3333;}
</style>
<circle class="st0" cx="400" cy="400" r="65.5"/>
<path class="st0" d="M438.6,184.9c-8-3.3-18.2-3.3-38.6-3.3c-20.4,0-30.5,0-38.6,3.3c-10.7,4.4-19.2,12.9-23.6,23.6
	c-2,4.9-2.8,10.6-3.1,18.9c-0.5,12.2-6.7,23.5-17.3,29.6c-10.6,6.1-23.4,5.9-34.2,0.2c-7.3-3.9-12.7-6-17.9-6.7
	c-11.5-1.5-23.1,1.6-32.3,8.7c-6.9,5.3-12,14.1-22.2,31.7c-10.2,17.6-15.3,26.4-16.4,35.1c-1.5,11.5,1.6,23.1,8.7,32.3
	c3.2,4.2,7.7,7.7,14.8,12.1c10.3,6.5,17,17.5,17,29.7c0,12.2-6.6,23.2-17,29.7c-7,4.4-11.5,7.9-14.8,12.1
	c-7.1,9.2-10.2,20.8-8.7,32.3c1.1,8.6,6.2,17.4,16.4,35.1c10.2,17.6,15.3,26.4,22.2,31.7c9.2,7.1,20.8,10.2,32.3,8.7
	c5.2-0.7,10.6-2.8,17.9-6.7c10.8-5.7,23.7-5.9,34.2,0.2c10.6,6.1,16.8,17.4,17.3,29.6c0.3,8.3,1.1,14,3.1,18.9
	c4.4,10.7,12.9,19.2,23.6,23.6c8,3.3,18.2,3.3,38.6,3.3c20.4,0,30.5,0,38.6-3.3c10.7-4.4,19.2-12.9,23.6-23.6
	c2-4.9,2.8-10.6,3.1-18.9c0.5-12.2,6.7-23.5,17.3-29.6c10.6-6.1,23.4-5.9,34.2-0.2c7.3,3.9,12.7,6,17.9,6.7
	c11.5,1.5,23.1-1.6,32.3-8.7c6.9-5.3,12-14.1,22.2-31.7c10.2-17.6,15.3-26.4,16.4-35.1c1.5-11.5-1.6-23.1-8.7-32.3
	c-3.2-4.2-7.7-7.7-14.8-12.1c-10.3-6.5-17-17.5-17-29.7s6.6-23.2,17-29.7c7-4.4,11.6-7.9,14.8-12.1c7.1-9.2,10.2-20.8,8.7-32.3
	c-1.1-8.6-6.2-17.4-16.4-35.1C579,273.1,573.9,264.3,567,259c-9.2-7.1-20.8-10.2-32.3-8.7c-5.2,0.7-10.6,2.8-17.9,6.7
	c-10.8,5.7-23.7,5.9-34.2-0.2c-10.6-6.1-16.8-17.4-17.3-29.6c-0.3-8.3-1.1-14-3.1-18.9C457.8,197.8,449.3,189.3,438.6,184.9z"/>
</svg>
