<?xml version="1.0" encoding="utf-8"?>
<!-- Generator: Adobe Illustrator 25.0.0, SVG Export Plug-In . SVG Version: 6.00 Build 0)  -->
<svg version="1.1" id="Layer_1" xmlns="http://www.w3.org/2000/svg" xmlns:xlink="http://www.w3.org/1999/xlink" x="0px" y="0px"
	 viewBox="0 0 80 80" style="enable-background:new 0 0 80 80;" xml:space="preserve">
<style type="text/css">
	.st0{fill-rule:evenodd;clip-rule:evenodd;fill:#F7F7F7;}
	.st1{fill-rule:evenodd;clip-rule:evenodd;fill:#193478;}
</style>
<rect x="-9.7" y="-10.2" class="st0" width="108.6" height="99.7"/>
<path id="on-time-delivery" class="st1" d="M50.5,34.6h-3.1v-4.2c0-1.2-1-2.3-2.3-2.3h-9.1c0.3,0.4,0.5,0.8,0.8,1.2h8.4
	c0.3,0,0.5,0.1,0.8,0.3c0.2,0.2,0.3,0.5,0.3,0.8v19.1h-3.4c-0.3,0-0.6,0.2-0.7,0.5c-0.1,0.3,0.2,0.6,0.5,0.7h0.1h4
	c0.3,0,0.6-0.3,0.6-0.6v-0.7h2.5c0.3-6.3,9.4-7.2,10.3,0h2c0.5-6.2-2.5-8.6-7.2-9.1c-0.4-1.4-1-2.9-1.7-4.2
	C52.5,34.5,52.3,34.6,50.5,34.6L50.5,34.6z M23.5,33h1.6h0.1c0.3,0.2,0.6,0.4,1,0.7c0.2,0.2,0.4,0.3,0.6,0.5
	c0.8-1.2,1.5-2.3,2.4-3.3c1-1.2,2-2.3,3-3.3l0.1-0.1h1.8l-0.3,0.4c-1.3,1.5-2.6,3.1-3.8,4.7c-1.1,1.5-2,3.1-2.9,4.7l-0.2,0.4
	l-0.2-0.4c-0.3-0.8-0.8-1.6-1.4-2.3s-1.2-1.3-1.9-1.8L23.5,33L23.5,33z M30.4,39.9c0.2,0.3,0.1,0.6-0.2,0.8
	c-0.3,0.2-0.6,0.1-0.8-0.2c0,0,0,0,0-0.1L29.1,40c-0.2-0.3-0.1-0.6,0.2-0.8c0.3-0.2,0.6-0.1,0.8,0.2c0,0,0,0,0,0.1L30.4,39.9z
	 M22.9,29.4c-0.2-0.3-0.1-0.6,0.2-0.8c0.3-0.2,0.6-0.1,0.8,0.2c0,0,0,0,0,0.1l0.3,0.5c0.2,0.3,0.1,0.6-0.2,0.8s-0.6,0.1-0.8-0.2
	c0,0,0,0,0-0.1C23.2,29.9,22.9,29.4,22.9,29.4z M32.5,37.4c0.3,0.1,0.4,0.5,0.3,0.8c-0.1,0.3-0.5,0.4-0.8,0.3l0,0l-0.5-0.3
	c-0.3-0.2-0.4-0.5-0.3-0.8s0.5-0.4,0.8-0.3c0,0,0,0,0.1,0L32.5,37.4L32.5,37.4z M20.7,32c-0.3-0.1-0.4-0.5-0.3-0.8
	c0.1-0.3,0.5-0.4,0.8-0.3c0,0,0,0,0.1,0l0.5,0.3c0.3,0.1,0.3,0.5,0.2,0.8c-0.1,0.3-0.5,0.3-0.8,0.2L20.7,32L20.7,32z M33.1,34.1
	c0.3,0,0.6,0.2,0.6,0.5c0,0.3-0.2,0.6-0.5,0.6h-0.1h-0.6c-0.3,0-0.5-0.3-0.5-0.6s0.3-0.5,0.5-0.5H33.1z M20.1,35.2
	c-0.3,0-0.6-0.2-0.6-0.5c0-0.3,0.2-0.6,0.5-0.6h0.1h0.6c0.3,0,0.6,0.2,0.6,0.5c0,0.3-0.2,0.6-0.5,0.6h-0.1
	C20.7,35.2,20.1,35.2,20.1,35.2z M21.3,38.4c-0.3,0.2-0.6,0.1-0.8-0.2c-0.2-0.3-0.1-0.6,0.2-0.8c0,0,0,0,0.1,0l0.5-0.3
	c0.3-0.2,0.6-0.1,0.8,0.2c0.2,0.3,0.1,0.6-0.2,0.8c0,0,0,0-0.1,0L21.3,38.4z M23.9,40.6c-0.1,0.3-0.5,0.4-0.8,0.3
	c-0.3-0.1-0.4-0.5-0.3-0.8c0,0,0,0,0-0.1l0.3-0.5c0.1-0.3,0.5-0.4,0.8-0.3c0.3,0.1,0.4,0.5,0.3,0.8c0,0,0,0,0,0.1L23.9,40.6z
	 M26.1,28.2c0-0.3,0.2-0.6,0.5-0.6c0.3,0,0.6,0.2,0.6,0.5v0.1v0.6c0,0.3-0.3,0.5-0.6,0.5c-0.3,0-0.5-0.3-0.5-0.5V28.2L26.1,28.2z
	 M27.2,41.1c0,0.3-0.2,0.6-0.5,0.6c-0.3,0-0.6-0.2-0.6-0.5v-0.1v-0.6c0-0.3,0.2-0.6,0.5-0.6c0.3,0,0.6,0.2,0.6,0.5v0.1V41.1z
	 M26.6,25.7c1.4,0,2.8,0.3,4,1c-0.2,0.2-0.5,0.5-0.8,0.8c-4-1.8-8.7-0.1-10.6,3.9c-1.8,4-0.1,8.7,3.9,10.6S32,42,33.8,38
	c1-2.3,1-4.8-0.2-7.1c0.2-0.3,0.5-0.5,0.7-0.8c2.5,4.2,1.2,9.8-3.1,12.3c-4.3,2.5-9.8,1.2-12.3-3.1s-1.2-9.8,3.1-12.3
	C23.4,26.1,25,25.7,26.6,25.7z M30.2,49.4c0.3,0,0.6,0.3,0.6,0.6c0,0.3-0.3,0.6-0.6,0.6h-6.5c-0.6,0-1.2-0.3-1.6-0.7
	c-0.4-0.4-0.7-1-0.7-1.6V45c0.4,0.2,0.8,0.3,1.2,0.5v2.9c0,0.3,0.1,0.5,0.3,0.8c0.2,0.2,0.4,0.3,0.7,0.3L30.2,49.4L30.2,49.4z
	 M36.4,46.1c-2.3,0-4.2,1.8-4.2,4.2c0,2.3,1.8,4.2,4.2,4.2c2.3,0,4.2-1.8,4.2-4.2c0-1.1-0.4-2.1-1.2-2.9
	C38.6,46.5,37.5,46.1,36.4,46.1z M36.4,48.6c-0.9,0-1.6,0.7-1.6,1.6s0.7,1.6,1.6,1.6s1.6-0.7,1.6-1.6C38.1,49.3,37.3,48.6,36.4,48.6
	L36.4,48.6z M55.1,45.5c-2.3,0-4.2,1.8-4.2,4.2c0,2.3,1.8,4.2,4.2,4.2c2.3,0,4.2-1.8,4.2-4.2C59.2,47.3,57.4,45.5,55.1,45.5
	L55.1,45.5z M53.5,49.6c-0.9,0-1.6-0.7-1.6-1.6s0.7-1.6,1.6-1.6s1.6,0.7,1.6,1.6C55.1,48.9,54.4,49.6,53.5,49.6L53.5,49.6z
	 M50.9,36.3H49v4h3.9C52.5,38.9,51.8,37.5,50.9,36.3L50.9,36.3z"/>
</svg>
