<?xml version="1.0" encoding="utf-8"?>
<!-- Generator: Adobe Illustrator 25.0.0, SVG Export Plug-In . SVG Version: 6.00 Build 0)  -->
<svg version="1.1" id="Layer_1" xmlns="http://www.w3.org/2000/svg" xmlns:xlink="http://www.w3.org/1999/xlink" x="0px" y="0px"
	 viewBox="0 0 512 512" style="enable-background:new 0 0 512 512;" xml:space="preserve">
<style type="text/css">
	.st0{fill:#31B4DD;}
</style>
<g>
	<g>
		<g>
			<path class="st0" d="M359.4,380.6c-9.4-5-32.6-18.1-42.6-27.6v-25.6c32.1-18.4,54-51.3,61-91.5c18.2-5.2,34-22.3,34-38
				c0-15.9-11.9-26.4-31.7-28.6v-18.5c0.7-6.7,6.1-71.8-32.3-114.7C326.3,12.2,295.4,0,256,0c-39.4,0-70.3,12.2-91.7,36.2
				c-38.4,42.9-33,108-32.3,114.7v18.5c-19.7,2.2-31.7,12.7-31.7,28.6c0,15.7,15.8,32.8,34,38c7,40.2,28.9,73.1,61,91.5V353
				c-10,9.4-33.2,22.6-42.7,27.6C49.8,414,47.5,475,47.5,477.5l0,34.5h417v-34.4C464.5,475,463,413.7,359.4,380.6z M380,185.3
				c14.1,2,15.8,9.3,15.8,12.7c0,6.5-7,15.3-16.1,20.1C379.9,214.9,380,185.3,380,185.3z M116.1,197.9c0-3.4,1.7-10.7,15.8-12.7
				c0,0,0.1,29.6,0.3,32.8C123.1,213.2,116.1,204.4,116.1,197.9z M176.1,46.7c18.3-20.5,45.2-30.8,79.9-30.8
				c34.6,0,61.5,10.4,79.9,30.8c27.9,31.1,29.4,77.9,28.8,95.7c-62.1-2.5-108.9-35-109.3-35.3l-12.5-8.9v15.3
				c0,6.4-12.8,15.7-48.8,22.5c-18.2,3.5-36.6,5.2-46.6,6C146.8,124,148.4,77.6,176.1,46.7z M149.1,228.3
				c-0.9-6.4-1.3-13.1-1.3-19.8v-50.6c10.2-0.8,29.5-2.5,49-6.2c31.4-6,50.7-14.6,58.2-26c17.2,10.2,57.9,30.7,109.2,32.6v50.3
				c0,6.7-0.4,13.3-1.3,19.8c-5.4,39.3-26.4,71.2-57.7,87.4c-14.8,7.7-31.3,11.5-49.1,11.5s-34.3-3.9-49.1-11.5
				C175.6,299.5,154.5,267.6,149.1,228.3z M300.8,335v18.2c-5.4,5.7-22.6,21.5-44.8,21.5c-22.1,0-39.4-15.9-44.8-21.5V335
				c13.9,5.4,29,8.1,44.8,8.1C271.9,343.1,286.9,340.4,300.8,335z M448.6,496.1H63.4v-18.4c0.1-1.7,3-52.7,94.8-82.3
				c0,0,30-15.7,44.8-28.1c8.1,7.6,24.2,20,45.1,22.7V483h15.9v-92.9c20.9-2.6,37-15,45.1-22.7c14.8,12.4,44.8,28.1,44.8,28.1
				c26.9,8.5,63.1,24.5,82.8,52.6c11.3,16.1,12,29,12,29.6L448.6,496.1L448.6,496.1z"/>
			<path class="st0" d="M242.8,211.2L242.8,211.2h26.4v26.4h79.2v-68.6h-79.2v26.4h-26.4v-26.4h-79.2v68.6h79.2V211.2z M285,184.8
				h47.5v36.9H285V184.8z M226.9,221.7h-47.5v-36.9H227L226.9,221.7L226.9,221.7z"/>
			<polygon class="st0" points="263.9,245.4 248.1,245.4 248.1,279.8 277.1,279.8 277.1,263.9 263.9,263.9 			"/>
			<rect x="314.1" y="448.6" class="st0" width="84.5" height="15.9"/>
			<rect x="213.8" y="401.1" class="st0" width="21.1" height="15.9"/>
			<rect x="213.8" y="432.8" class="st0" width="21.1" height="15.9"/>
			<rect x="213.8" y="464.5" class="st0" width="21.1" height="15.9"/>
		</g>
	</g>
</g>
</svg>
