<?xml version="1.0" encoding="utf-8"?>
<!-- Generator: Adobe Illustrator 25.0.0, SVG Export Plug-In . SVG Version: 6.00 Build 0)  -->
<svg version="1.1" id="Layer_1" xmlns="http://www.w3.org/2000/svg" xmlns:xlink="http://www.w3.org/1999/xlink" x="0px" y="0px"
	 viewBox="0 0 633.6 721.3" style="enable-background:new 0 0 633.6 721.3;" xml:space="preserve">
<style type="text/css">
	.st0{clip-path:url(#SVGID_2_);}
	.st1{opacity:0.43;clip-path:url(#SVGID_4_);}
	.st2{clip-path:url(#SVGID_6_);}
	.st3{clip-path:url(#SVGID_10_);fill:url(#SVGID_11_);}
	.st4{clip-path:url(#SVGID_13_);fill:#CB1F40;}
	.st5{clip-path:url(#SVGID_13_);fill-rule:evenodd;clip-rule:evenodd;fill:#002469;}
</style>
<g>
	<defs>
		<rect id="SVGID_1_" width="633.6" height="721.3"/>
	</defs>
	<clipPath id="SVGID_2_">
		<use xlink:href="#SVGID_1_"  style="overflow:visible;"/>
	</clipPath>
	<g class="st0">
		<defs>
			<rect id="SVGID_3_" width="633.6" height="721.3"/>
		</defs>
		<clipPath id="SVGID_4_">
			<use xlink:href="#SVGID_3_"  style="overflow:visible;"/>
		</clipPath>
		<g class="st1">
			<g>
				<defs>
					<rect id="SVGID_5_" x="42.6" y="42.9" width="512.4" height="601.9"/>
				</defs>
				<clipPath id="SVGID_6_">
					<use xlink:href="#SVGID_5_"  style="overflow:visible;"/>
				</clipPath>
				<g class="st2">
					<defs>
						<rect id="SVGID_7_" x="42.6" y="42.9" width="512.4" height="601.9"/>
					</defs>
					<clipPath id="SVGID_8_">
						<use xlink:href="#SVGID_7_"  style="overflow:visible;"/>
					</clipPath>
					<g style="clip-path:url(#SVGID_8_);">
						
							<image style="overflow:visible;" width="2135" height="2508" xlink:href="D43546A8.png"  transform="matrix(0.24 0 0 0.24 42.6037 42.9205)">
						</image>
					</g>
				</g>
			</g>
		</g>
	</g>
	<g class="st0">
		<defs>
			<path id="SVGID_9_" d="M243.2,277.9l5.1-4.2c5.9-4.9,11.3-9.6,16.3-14.3l-0.3,92.2l29.8-16.7c17.2-9.6,35-14.5,52.9-14.5
				c61.4,0,111.3,51.1,111.3,113.9S408.4,548.2,347,548.2c-51.1,0-95-36-107.6-85c-3.8-13.3-5.8-26.6-5.9-39.9H113.8
				C127.3,372.7,188.5,322.6,243.2,277.9 M118.7,168.5v5.8h39.9v-5.8c0-31.6,25.7-57.3,57.3-57.3c30,0,60.5,17.1,60.5,49.8l-0.2,0.8
				l0.3,1.6c0,2.1-0.3,14.6-11.7,33.4h0v0c-7.7,12.8-20.5,28.6-41.8,46l-5.1,4.2C149.1,303.3,71.1,367.1,71.1,443.2v20h127.4
				c13.4,71.3,75.6,124.9,148.5,124.9c83.4,0,151.2-69,151.2-153.9c0-84.8-67.8-153.9-151.2-153.9c-14.4,0-28.6,2.2-42.6,6.6
				l0.2-50.3h157.9l-36.3-39.9H309.4c7.3-18.5,7.3-31.8,6.9-36.8c-0.5-50.7-43.5-88.8-100.4-88.8
				C162.3,71.3,118.7,114.9,118.7,168.5"/>
		</defs>
		<clipPath id="SVGID_10_">
			<use xlink:href="#SVGID_9_"  style="overflow:visible;"/>
		</clipPath>
		
			<linearGradient id="SVGID_11_" gradientUnits="userSpaceOnUse" x1="0" y1="721.3746" x2="1" y2="721.3746" gradientTransform="matrix(371.7145 684.8336 684.8336 -371.7145 -493959.9062 268064.125)">
			<stop  offset="0" style="stop-color:#F6EB16"/>
			<stop  offset="5.485270e-03" style="stop-color:#F6EB16"/>
			<stop  offset="1" style="stop-color:#F47D20"/>
		</linearGradient>
		<polygon class="st3" points="401,-107.8 714.9,470.5 168.3,767.2 -145.6,188.9 		"/>
	</g>
	<g class="st0">
		<defs>
			<rect id="SVGID_12_" width="633.6" height="721.3"/>
		</defs>
		<clipPath id="SVGID_13_">
			<use xlink:href="#SVGID_12_"  style="overflow:visible;"/>
		</clipPath>
		<polygon class="st4" points="165.8,526.7 177.2,514.8 178.7,517.7 170.2,526.4 182.3,524.8 183.6,527.5 167.2,529.5 156.3,534.9 
			155,532.2 		"/>
		<polygon class="st4" points="190.2,538.6 196.6,548 194.3,549.5 189.6,542.7 182.2,547.8 186,553.3 183.6,554.9 179.9,549.3 
			171.4,555.1 176,562 173.7,563.5 167.3,554.1 		"/>
		<path class="st4" d="M194.7,579.8l-4.3-4.8l-5.1,3.2l-1.9-2.2l24-14.7l2.8,3.1l-17.1,22.4l-2.1-2.3L194.7,579.8z M196.4,577.6
			l9.7-12.5l-13.4,8.4L196.4,577.6z"/>
		<path class="st4" d="M223.2,577.4l4.6,3.9c3.4,2.8,3.5,5.5,0.7,8.8l-1.1,1.3c-2,2.3-3.9,3.1-6,2.2l0,0c1.4,2,0.9,4-1.2,6.5
			L217,604c-0.8,1-1.5,1.8-1.9,2.8l-2.4-2c0.3-0.8,0.7-1.4,1.9-2.8l3.3-3.9c1.9-2.3,1.8-3.8-0.2-5.5l-1.9-1.6l-8,9.6l-2.4-2
			L223.2,577.4z M219.5,590.5c1.9,1.6,3.5,1.6,5.2-0.6l1.3-1.5c1.7-2.1,1.7-3.5,0-5l-2.2-1.9l-6.2,7.3L219.5,590.5z"/>
		<path class="st4" d="M232.1,611.2l0.8-1.3l2.5,1.6l-0.9,1.5c-1.3,2.1-0.9,3.8,0.8,4.8c1.7,1.1,3.4,0.7,4.7-1.4
			c1.4-2.2,1.3-4.1,0-8.1c-1.6-4.7-1.5-7.3,0.2-9.9c2.2-3.5,5.4-4.4,8.8-2.3c3.4,2.1,3.9,5.3,1.6,8.9l-0.6,0.9l-2.5-1.6l0.7-1.1
			c1.3-2.1,1-3.7-0.7-4.8c-1.7-1-3.3-0.7-4.6,1.4c-1.2,1.9-1.1,3.9,0.2,7.9c1.5,4.7,1.4,7.2-0.4,10.1c-2.3,3.7-5.5,4.5-8.9,2.4
			C230.3,618.1,229.8,614.9,232.1,611.2"/>
		<path class="st4" d="M273.2,632.4l4.9-14c1.4-4.2,4.4-5.7,8.2-4.3c3.9,1.4,5.2,4.4,3.8,8.5l-4.9,14c-1.5,4.1-4.4,5.7-8.3,4.4
			C273,639.6,271.7,636.5,273.2,632.4 M282.2,635.7l5-14.4c0.9-2.5,0.1-4-1.8-4.7c-1.9-0.7-3.5,0.1-4.3,2.5l-5,14.4
			c-0.9,2.5-0.1,4,1.8,4.7C279.8,639,281.3,638.2,282.2,635.7"/>
		<polygon class="st4" points="305.6,620.1 316.4,622.3 315.8,625.1 308,623.5 306.2,632.7 312.4,634 311.8,636.7 305.6,635.5 
			303.1,647.9 300,647.2 		"/>
		
			<rect x="332.1" y="637.2" transform="matrix(1.101471e-02 -0.9999 0.9999 1.101471e-02 -296.6113 977.5843)" class="st4" width="27.7" height="3.1"/>
		<polygon class="st4" points="361.5,624.6 365.4,624.1 373.7,643.1 371.6,623.5 374.4,623.2 377.4,650.7 374.2,651.1 364.8,629.4 
			367.2,651.8 364.4,652.1 		"/>
		<polygon class="st4" points="392.8,622.4 388.1,623.6 387.4,620.9 399.9,617.7 400.6,620.5 395.8,621.7 401.9,645.8 398.9,646.5 
					"/>
		<polygon class="st4" points="412.1,613.7 422.7,609.5 423.7,612.1 416,615.2 419.4,623.5 425.6,621 426.6,623.7 420.4,626.1 
			424.2,635.7 431.9,632.6 432.9,635.2 422.4,639.4 		"/>
		<path class="st4" d="M434.7,603.7l5.3-3c3.8-2.2,6.4-1.4,8.5,2.4l0.8,1.5c1.5,2.7,1.5,4.7,0,6.4l0,0c2.3-0.6,4.1,0.6,5.7,3.4
			l2.4,4.3c0.6,1.1,1.2,2,2,2.7l-2.7,1.5c-0.6-0.6-1.1-1.1-2-2.7l-2.5-4.4c-1.5-2.6-2.9-3-5.2-1.7l-2.2,1.2l6.2,10.9l-2.7,1.5
			L434.7,603.7z M445.6,611.8c2.1-1.2,2.7-2.7,1.3-5.1l-1-1.7c-1.3-2.3-2.7-2.8-4.7-1.7l-2.5,1.4l4.7,8.3L445.6,611.8z"/>
		<polygon class="st4" points="457.3,589.8 460.4,587.4 477.5,599.1 465.3,583.5 467.6,581.8 484.6,603.6 482.1,605.6 462.7,592.1 
			476.6,609.9 474.4,611.6 		"/>
		<path class="st4" d="M500.2,581l-4.5,4.6l3.5,4.9l-2,2.1l-16.3-23l2.9-3l23.5,15.6l-2.2,2.2L500.2,581z M497.9,579.4l-13.1-8.9
			l9.3,12.8L497.9,579.4z"/>
		<polygon class="st4" points="498.7,553.4 495.8,557.3 493.5,555.6 501.3,545.3 503.5,547 500.6,550.9 520.5,565.9 518.6,568.3 		
			"/>
		
			<rect x="519.2" y="526.7" transform="matrix(0.5105 -0.8599 0.8599 0.5105 -209.8541 712.3371)" class="st4" width="3.1" height="27.7"/>
		<path class="st4" d="M535.4,529l-13.6-6.1c-4-1.8-5.3-4.8-3.6-8.6c1.7-3.8,4.8-4.8,8.8-3l13.5,6.1c4,1.8,5.3,4.9,3.6,8.6
			C542.6,529.8,539.4,530.8,535.4,529 M539.5,520.3l-13.9-6.2c-2.4-1.1-4-0.5-4.8,1.4c-0.8,1.9-0.2,3.4,2.1,4.5l13.9,6.2
			c2.4,1.1,4,0.5,4.8-1.4C542.6,523,542,521.4,539.5,520.3"/>
		<polygon class="st4" points="526.1,495.4 527.2,491.6 547.9,491 528.9,485.6 529.7,482.9 556.3,490.5 555.4,493.6 531.9,494.1 
			553.5,500.3 552.8,503 		"/>
		<path class="st4" d="M555.4,462.6l-0.9,6.4l5.7,1.8l-0.4,2.9l-26.8-8.8l0.6-4.1l28.1-1.4l-0.4,3.1L555.4,462.6z M552.7,462.8
			l-15.8,0.7l15.1,4.7L552.7,462.8z"/>
		<polygon class="st4" points="535.1,442.6 535.1,439.5 560,439.5 560,431.6 562.8,431.6 562.8,442.6 		"/>
		<polygon class="st4" points="534.2,419.3 533.9,416.2 561.4,413.3 561.7,416.4 		"/>
		<path class="st4" d="M552.9,398.7l-1.5,0.3l-0.6-2.9l1.7-0.4c2.4-0.5,3.3-2,2.9-3.9c-0.4-2-1.9-2.9-4.3-2.4
			c-2.5,0.5-3.9,1.9-5.8,5.6c-2.3,4.4-4.2,6.1-7.2,6.8c-4.1,0.9-6.9-0.7-7.8-4.6c-0.9-3.9,1.1-6.5,5.2-7.4l1.1-0.2l0.6,2.9l-1.3,0.3
			c-2.4,0.5-3.3,1.9-2.9,3.9c0.4,1.9,1.8,2.8,4.2,2.3c2.2-0.5,3.5-1.9,5.5-5.7c2.3-4.4,4.2-6.1,7.5-6.8c4.2-0.9,7.1,0.8,8,4.7
			C559,395.2,557.1,397.8,552.9,398.7"/>
		<path class="st4" d="M542.9,362.4l2.2,6l5.9-1.1l1,2.7l-27.8,4.8l-1.4-3.9l24.2-14.5l1.1,2.9L542.9,362.4z M540.5,363.8l-13.7,8
			l15.6-2.9L540.5,363.8z"/>
		<polygon class="st4" points="517.4,351.8 519.6,356.2 517.2,357.5 511.2,346.1 513.7,344.8 516,349.1 538,337.6 539.5,340.4 		"/>
		
			<rect x="501.4" y="324.8" transform="matrix(0.8311 -0.5561 0.5561 0.8311 -94.4906 341.6624)" class="st4" width="27.7" height="3.1"/>
		<path class="st4" d="M511.3,308.3l-11.4,9.6c-3.4,2.8-6.7,2.7-9.3-0.5c-2.6-3.1-2.3-6.4,1.1-9.3l11.4-9.6c3.4-2.8,6.7-2.7,9.3,0.5
			C515.1,302.2,514.7,305.5,511.3,308.3 M505.3,300.8l-11.7,9.8c-2,1.7-2.1,3.4-0.8,5c1.3,1.6,3,1.7,5,0l11.7-9.8
			c2-1.7,2.2-3.4,0.8-5C509,299.3,507.3,299.1,505.3,300.8"/>
		<polygon class="st4" points="477,302.1 474.1,299.5 482.6,280.5 469.4,295.3 467.3,293.5 485.7,272.8 488.1,274.9 478.4,296.4 
			493.4,279.6 495.4,281.4 		"/>
		<path class="st5" d="M392.9,383.6c14.8,13,24,32.1,23.6,53.3c-0.2,8.9-2,17.3-5.2,25.1c-0.7-0.3-3.7-1.2-3.2-2.3
			c2.8-7.1,4.4-14.8,4.5-22.8c0.3-19.6-7.9-37.3-21.4-49.5C390.3,386.4,392.3,384.3,392.9,383.6"/>
		<path class="st5" d="M394.8,381.4c15.4,13.5,25,33.5,24.6,55.6c-0.2,9.3-2.1,18.1-5.4,26.1l-1.3-0.6c3.2-7.9,5.1-16.5,5.3-25.6
			c0.4-21.7-9-41.2-24.1-54.4L394.8,381.4z"/>
		<path class="st5" d="M301.6,383.6c-14.8,13-24,32.1-23.6,53.3c0.2,8.9,2,17.3,5.2,25.1c0.7-0.3,3.7-1.2,3.2-2.3
			c-2.8-7.1-4.4-14.8-4.5-22.8c-0.3-19.6,7.9-37.3,21.4-49.5C304.3,386.4,302.3,384.3,301.6,383.6"/>
		<path class="st5" d="M299.7,381.4c-15.4,13.5-25,33.5-24.6,55.6c0.2,9.3,2.1,18.1,5.4,26.1l1.3-0.6c-3.2-7.9-5.1-16.5-5.3-25.6
			c-0.4-21.7,9-41.2,24.1-54.4L299.7,381.4z"/>
		<path class="st5" d="M383.2,369.7c-3.7,5.4-7.8,11.8-12.1,19.2c-14.9-7.5-32.9-7.5-47.8,0c-4.3-7.4-8.4-13.8-12.1-19.2l4.3-2.2
			c0.5-0.3,0.7,0.1,0.4,0.5c-0.7,1.3-0.9,2.7-0.7,3.6c0.3,1.2,1.4,1.5,2.4,1.1c1.7-0.7,1.2-3.3,1.7-3.8c0.1-0.1,4.2,7.8,4,7.9
			c-0.6,0.3-1.3-1-2.7-0.9c-1.3,0.1-1.5,1.3-1.1,2.4c2,6.1,12.6,5.5,11.2-1.8c-0.4-1.8-2.8-1.6-3.7-0.4c-1.3-0.8-1.9-3.5-1-4.9
			c0.8-1.5,3,0.2,3.4-0.6c0.8-1.5-4.2-1.6-1-7.2c6,2.6,2.1,5.4,3.4,6.4c1.1,0.8,1.2-1.2,3.1-1.2c2.1,0,2.5,3.2,2.2,4.8
			c-3.7-1.7-4.5,3.1-0.9,4.8c4.8,2.3,9.8-2,9-6.9c-0.3-1.6-2.7-3.3-4.3,0.9c-0.3,0.8-1.4-8.9-1.2-9.1c0.3-0.3,2.1,4.3,4.6,1.9
			c2.5-2.4-1.3-4.3-2.3-4.9c-0.3-0.2-0.3-0.6,0.1-0.6c3.1-0.6,6.9-0.6,10.1,0c0.4,0.1,0.4,0.4,0.1,0.6c-1,0.7-4.8,2.5-2.3,4.9
			c2.5,2.4,4.3-2.1,4.6-1.9c0.2,0.1-0.9,9.8-1.2,9.1c-1.6-4.2-4.1-2.5-4.3-0.9c-0.8,5,4.2,9.3,9,6.9c3.5-1.7,2.8-6.5-0.9-4.8
			c-0.3-1.6,0.2-4.9,2.2-4.8c1.8,0,2,2,3.1,1.2c1.3-1-2.6-3.7,3.4-6.4c3.2,5.6-1.8,5.7-1,7.2c0.4,0.8,2.6-0.9,3.4,0.6
			c0.8,1.5,0.3,4.2-1,4.9c-0.9-1.3-3.3-1.4-3.7,0.4c-1.4,7.3,9.2,7.9,11.2,1.8c0.3-1,0.2-2.2-1.1-2.4c-1.4-0.1-2,1.2-2.7,0.9
			c-0.2-0.1,3.9-8,4-7.9c0.5,0.5-0.1,3.1,1.7,3.8c1,0.4,2.1,0.1,2.4-1.1c0.2-0.9,0.1-2.2-0.7-3.6c-0.3-0.5-0.1-0.8,0.4-0.5
			L383.2,369.7z"/>
		<path class="st5" d="M319,474c1.1-0.1,2,0.7,2.1,1.8c0.1,1.1-0.7,2-1.8,2.1c-1.1,0.1-2-0.7-2.1-1.8C317.1,475,317.9,474.1,319,474
			 M319,474.9c-0.5,0-0.9,0.5-0.9,1c0,0.5,0.5,0.9,1,0.9c0.5,0,0.9-0.5,0.9-1C320,475.3,319.6,474.9,319,474.9"/>
		<path class="st5" d="M375.6,473.5c1-0.3,2.1,0.3,2.4,1.4c0.3,1-0.3,2.1-1.4,2.4c-1,0.3-2.1-0.3-2.4-1.4
			C374,474.9,374.6,473.8,375.6,473.5 M375.9,474.5c-0.5,0.1-0.8,0.7-0.7,1.2c0.1,0.5,0.7,0.8,1.2,0.7c0.5-0.1,0.8-0.7,0.7-1.2
			C376.9,474.6,376.4,474.3,375.9,474.5"/>
		<path class="st5" d="M298.6,471.1c-1.2-1.3-2.4-3-3.3-4.1c-0.3-0.4-0.8,0-0.5,0.4c0.5,0.7,1,1.2,0.2,1.9c-3.4,2.8-6.7,5.6-9.2,7.4
			c-0.8,0.5-0.9,0.5-1.6-0.3c-0.3-0.4-0.9,0-0.5,0.4c0.9,1.1,2.6,3.1,3.4,4.3c0.4,0.5,1,0.2,0.6-0.4c-0.5-0.8-1-1-0.1-1.8
			c1-0.9,2.9-2.5,3.3-2.8c0.4,0.5,0.8,1,1.2,1.5c-0.3,1.5-1.7,5.3-1.5,7.1c0.2,1.5,1.4,2.4,2.4,3.8c0.3,0.4,0.8,0,0.6-0.4
			c-0.5-0.6-0.9-1.5-0.7-3c0.3-2.1,0.9-4.3,1.3-6.4c2.5,0.5,4,0.1,5.1-0.9C301.5,475.6,300.3,473,298.6,471.1 M292.1,475.1l4.9-3.9
			c2.2,2,1.2,3.9,0.1,4.9C295.1,477.8,293,477.8,292.1,475.1"/>
		<path class="st5" d="M311,484.3l-11,7.2c-1.1,0.7-1.7,0.9-2.7,0.2c-0.4-0.3-0.9,0.3-0.4,0.6c1.4,0.9,2.6,1.7,3.7,2.7
			c0.4,0.3,0.9-0.2,0.5-0.5c-1-0.7-0.9-1-0.1-1.5l2.9-2l3.6,2.6l-1.1,4.3c-0.1,0.3-0.2,0.2-0.4,0.1c-0.3-0.1-0.5,0.2-0.3,0.5
			c0.6,0.6,2.8,2.2,4.1,2.9c0.4,0.3,0.6-0.4,0.3-0.6c-1.3-0.8-1.1-2-0.8-3.1l3-12.7C312.8,483.3,311.8,483.7,311,484.3 M308,492
			l-2.8-2l4.1-2.8L308,492z"/>
		<path class="st5" d="M328.6,492.7c-1.6-0.6-3.5-1.4-5.3-2.1c-0.4-0.2-0.7,0.3-0.3,0.6c0.6,0.4,1.6,0.5,1.2,1.6l-3.8,9.3
			c-1.1,2.8-2.2,6.2-5.3,6.4c-0.7,0-0.6,0.8,0,0.7c4.5-0.4,6.3-1.8,7.9-5.7c1.2-3,2.4-6.1,3.6-9.1c0.6-1.4,0.7-1.4,1.8-1
			C328.8,493.5,329,492.9,328.6,492.7"/>
		<path class="st5" d="M339.3,495.8l-6.5,11.4c-0.7,1.2-1.1,1.6-2.3,1.4c-0.5-0.1-0.6,0.6,0,0.7c1.6,0.1,3,0.3,4.5,0.6
			c0.4,0.1,0.7-0.6,0.2-0.7c-1.2-0.2-1.2-0.4-0.8-1.3l1.7-3.1l4.4,0.6l1,4.3c0.1,0.3-0.1,0.3-0.3,0.3c-0.3,0-0.4,0.5-0.1,0.5
			c0.9,0.3,3.5,0.6,5,0.7c0.5,0,0.4-0.6,0-0.7c-1.6-0.1-1.9-1.3-2.2-2.4l-3.2-12.6C340.4,494.1,339.7,494.9,339.3,495.8
			 M340.1,504.1l-3.4-0.4l2.3-4.4L340.1,504.1z"/>
		<path class="st5" d="M387.6,480.3c-1.2,1.2-2.8,2.5-3.9,3.5c-0.4,0.3,0,0.8,0.4,0.5c0.6-0.5,1.2-1,1.9-0.3c3,3.2,6,6.4,7.8,8.8
			c0.5,0.8,0.5,0.8-0.2,1.6c-0.4,0.3,0.1,0.9,0.4,0.5c1-0.9,2.9-2.8,4.1-3.7c0.5-0.4,0.2-1-0.4-0.6c-0.8,0.6-1,1-1.8,0.2
			c-1-1-2.6-2.7-3-3.2c0.5-0.4,1-0.8,1.5-1.2c1.6,0.2,5.4,1.4,7.1,1.1c1.4-0.2,2.3-1.6,3.6-2.6c0.4-0.3-0.1-0.8-0.4-0.5
			c-0.6,0.5-1.4,1-2.9,0.8c-2.2-0.2-4.3-0.6-6.4-1c0.4-2.5-0.1-4-1.1-5C391.9,477.1,389.4,478.5,387.6,480.3 M391.9,486.6l-4.2-4.7
			c1.9-2.3,3.8-1.4,4.9-0.3C394.5,483.5,394.6,485.5,391.9,486.6"/>
		<path class="st5" d="M368.1,500.4c-1.6,0.4-3.5,0.7-5.2,1c-0.6,0.1-0.5,0.8,0.1,0.7c1.1-0.2,1.5-0.2,1.7,1l0.7,3.8
			c0.1,0.3,0,0.6-0.4,0.7c-4.8,1.7-8.5-1.3-9.2-5.5c-0.7-3.7,0.6-6.2,4.4-6.9c1.8-0.3,4.7-0.2,5.3,2.1c0.1,0.5,0.8,0.4,0.7-0.2
			c-0.2-1-0.4-2.5-0.5-3.1c0-0.6-0.2-0.6-0.8-0.5c-2.9,0.1-6,0.2-8.6,1.7c-2.6,1.6-4.1,4.6-3.5,8.1c1.4,8,10.9,7.1,15.1,4.3
			c0.4-0.3,0.3-0.5,0.3-1c-0.3-1.4-0.5-2.8-0.8-4.2c-0.1-0.7-0.1-1.3,0.9-1.4C368.9,501,368.8,500.3,368.1,500.4"/>
		<path class="st5" d="M384.5,500.5c-0.8,0.3-1.4,0.9-1.9-0.1c-1.8-3.2-3.7-7.5-5.3-10.7c-0.5-1,0.1-1.1,0.7-1.5
			c0.4-0.3,0.1-0.8-0.4-0.6c-0.8,0.4-2.3,1.3-4.8,2.3c-0.6,0.2-0.3,0.9,0.3,0.6c0.7-0.3,1.1-0.5,1.6,0.4c0.8,1.7,4.2,8.4,5.1,10.7
			c0.3,0.8,0.1,1-0.6,1.3c-0.6,0.3-0.1,0.9,0.4,0.6c1.6-0.9,3.4-1.7,5.1-2.5C385.3,500.9,385.1,500.3,384.5,500.5"/>
		<path class="st5" d="M412.2,472.9c-0.6,0.7-0.7,1.5-1.7,0.9c-3.2-1.8-7.1-4.5-10-6.5c-0.9-0.6-0.5-1-0.1-1.7
			c0.2-0.5-0.3-0.7-0.6-0.3c-0.5,0.8-1.3,2.3-2.9,4.4c-0.4,0.5,0.2,0.9,0.6,0.4c0.4-0.7,0.7-1,1.5-0.5c1.6,1,7.9,5,9.9,6.6
			c0.7,0.5,0.6,0.8,0.1,1.5c-0.3,0.5,0.4,0.9,0.6,0.4c0.9-1.6,2.1-3.3,3.1-4.8C413.1,472.8,412.6,472.4,412.2,472.9"/>
		<path class="st5" d="M301.9,432l0,2.4c-0.5-0.3-1.1-0.4-1.7-0.4l-5.5,0l0,0.9c0,0.3,0.1,0.5,0.2,0.8l1,1.4l-1.8-0.3l0-4.7
			c0.5,0.3,1.1,0.4,1.7,0.4l4.4,0C300.8,432.4,301.4,432.3,301.9,432"/>
		<path class="st5" d="M301.9,439.2l0.9,4.9l-1.7,0.3l0.7-1.3c0.2-0.3,0.1-0.6,0.1-0.9l-0.2-1.1l-2.9,0.5l0.1,0.9
			c0.1,0.3,0.2,0.5,0.4,0.8l0.8,0.7l-2.3,0.4l0.5-1.1c0.1-0.3,0.1-0.5,0-0.8l-0.1-0.8l-3.1,0.5l0.2,1.2c0,0.3,0.2,0.5,0.4,0.7
			l1.3,1.2l-1.8,0.1l-0.9-4.9c0.6,0.2,1.1,0.2,1.8,0.1l4.3-0.8C300.9,439.8,301.4,439.6,301.9,439.2"/>
		<path class="st5" d="M302.9,449.9l-3,0.1l0.7,1.7L302.9,449.9z M304.7,450.1l-5.3,4.4c-0.4,0.4-0.8,0.8-1,1.3l-0.9-2.5
			c0.6,0.2,0.7,0.2,1.3-0.2l1.5-1.1l-0.8-2l-1.8,0.1c-0.7,0-0.8,0.1-1.2,0.6l-0.7-1.8c0.6,0.2,1.3,0.3,1.9,0.3l6.5,0.1L304.7,450.1z
			"/>
		<path class="st5" d="M306.9,456.9l-2.7,1.5l0.3,0.5c0.5,0.9,1.2,0.8,2,0.4c0.8-0.4,1.2-1,0.7-1.9L306.9,456.9z M306.4,455l1.5,2.7
			c0.5,0.9,0.8,2.2-0.5,2.9c-1,0.6-1.9,0.2-2.6-0.6l-1.5,2.8c-0.3,0.5-0.5,1.1-0.6,1.7l-1-1.9l2.3-4.1l-2,1.1
			c-0.6,0.3-1,0.7-1.3,1.2l-1.1-2.1c0.6,0,1.1-0.1,1.7-0.4l3.8-2.1C305.7,455.9,306,455.5,306.4,455"/>
		<path class="st5" d="M310.4,462.2l1.1,1.3l-1.6,6.4l2.8-2.4c0.5-0.4,0.8-0.8,1-1.4l1.1,1.2c-0.6,0.1-1.1,0.4-1.6,0.8l-4.6,4
			l-0.6-0.7l1.7-7.1l-3.2,2.8c-0.5,0.4-0.8,0.8-1,1.5l-1.1-1.2c0.6-0.1,1.1-0.4,1.6-0.8l3.3-2.9
			C309.9,463.3,310.2,462.8,310.4,462.2"/>
		<path class="st5" d="M351.1,481l2.6-0.4c-0.2,0.6-0.3,0.6-0.1,1.1l2.4,4.7l0.9-5.3c0.1-0.5-0.1-0.6-0.4-1l1.8-0.3
			c-0.3,0.4-0.5,1-0.6,1.5l-1.3,6.7l-1,0.2l-3.3-6C351.9,481.7,351.5,481.3,351.1,481"/>
		<path class="st5" d="M333.3,479l-0.6,1.5l-0.8-1.4c-0.5-0.8-1.8-0.9-2.2,0c-0.3,0.6,0.2,1.2,0.5,1.6l0.7,1
			c0.4,0.6,0.7,1.1,0.7,1.8c-0.1,0.9-0.6,1.8-1.5,2c-1.4,0.4-2.9-0.5-3.9-1.4l0.7-1.7l0.8,1.7c0.3,0.6,1.2,0.9,1.8,0.6
			c0.4-0.2,0.6-0.6,0.7-1c0-0.4-0.1-0.7-0.4-1.1l-0.9-1.3c-1.2-1.7-0.3-3.1,0.6-3.5C330.6,477.5,332.3,478.4,333.3,479"/>
		<path class="st5" d="M335.9,479.8l4.9,0.9l-0.3,1.7l-1-1.1c-0.2-0.2-0.5-0.3-0.8-0.4l-1.1-0.2l-0.5,2.9l0.9,0.2
			c0.3,0.1,0.6,0,0.9-0.1l1-0.5l-0.4,2.3l-0.9-0.9c-0.2-0.2-0.4-0.3-0.7-0.3l-0.8-0.1l-0.6,3.1l1.2,0.2c0.3,0,0.5,0,0.8-0.1l1.5-0.8
			l-0.6,1.8l-4.9-0.9c0.4-0.5,0.6-1,0.7-1.6l0.8-4.3C336.2,480.9,336.2,480.3,335.9,479.8"/>
		<path class="st5" d="M360.3,479l4.7-1.7l0.6,1.6l-1.4-0.5c-0.3-0.1-0.6,0-0.9,0.1l-1,0.4l1,2.8l0.8-0.3c0.3-0.1,0.5-0.3,0.7-0.5
			l0.6-0.9l0.8,2.2l-1.2-0.3c-0.3-0.1-0.5,0-0.8,0.1l-0.8,0.3l1.1,3l1.1-0.4c0.3-0.1,0.5-0.2,0.6-0.5l1-1.4l0.4,1.8l-4.7,1.7
			c0.1-0.6,0.1-1.1-0.2-1.8l-1.5-4.1C361.1,479.9,360.8,479.4,360.3,479"/>
		<path class="st5" d="M345.7,481.4l0,3.1l0.6,0c1,0,1.3-0.7,1.3-1.5c0-0.9-0.3-1.6-1.3-1.6L345.7,481.4z M343.8,480.9l3.1,0
			c1.1,0,2.3,0.4,2.3,1.8c0,1.2-0.7,1.8-1.8,2l1.7,2.7c0.3,0.5,0.7,1,1.2,1.3l-2.1,0l-2.5-4l0,2.3c0,0.7,0.1,1.2,0.4,1.7l-2.4,0
			c0.3-0.5,0.5-1,0.5-1.7l0-4.4C344.2,481.9,344.1,481.4,343.8,480.9"/>
		<path class="st5" d="M391.7,445.1l0.8-4.9l1.7,0.3l-1.1,1c-0.2,0.2-0.3,0.5-0.3,0.8l-0.2,1.1l2.9,0.5l0.1-0.9
			c0.1-0.3,0-0.6-0.1-0.9l-0.5-0.9l2.3,0.4l-0.9,0.9c-0.2,0.2-0.3,0.4-0.3,0.7l-0.1,0.8l3.1,0.5l0.2-1.2c0-0.3,0-0.5-0.1-0.8
			l-0.8-1.5l1.8,0.5l-0.8,4.9c-0.5-0.4-1-0.6-1.6-0.7l-4.3-0.7C392.8,444.8,392.3,444.9,391.7,445.1"/>
		<path class="st5" d="M380.6,466.5l3.2-3.9l1.3,1.1l-1.5,0.3c-0.3,0.1-0.5,0.3-0.7,0.5l-0.7,0.8l2.3,1.9l0.6-0.7
			c0.2-0.3,0.3-0.5,0.3-0.8l0.1-1.1l1.8,1.5l-1.2,0.3c-0.3,0.1-0.4,0.3-0.6,0.5l-0.5,0.6l2.5,2l0.7-0.9c0.2-0.2,0.3-0.5,0.3-0.7
			l0.1-1.7l1.3,1.4l-3.2,3.8c-0.2-0.6-0.5-1-1.1-1.4l-3.4-2.8C381.7,466.8,381.2,466.6,380.6,466.5"/>
		<path class="st5" d="M392.5,437l0-2.4c0.5,0.3,1.1,0.4,1.7,0.4l5.5,0l0-0.9c0-0.3-0.1-0.5-0.2-0.8l-1-1.4l1.8,0.3l0,4.7
			c-0.5-0.3-1.1-0.4-1.7-0.4l-4.4,0C393.6,436.6,393,436.7,392.5,437"/>
		<path class="st5" d="M385.3,460.4l1.4-2.3c0.2,0.6,0.3,0.6,0.9,0.6l1.9,0l-1-1.8c-0.2-0.5-0.4-0.4-0.9-0.4l1-1.6
			c0.1,0.5,0.3,1,0.5,1.5l1,2.4l3.7,0.1c0.5,0,1-0.1,1.5-0.3l-1.4,2.3c-0.2-0.6-0.3-0.6-0.8-0.6l-2.3-0.1l1.1,2.1
			c0.2,0.4,0.4,0.5,0.9,0.4l-1,1.7c-0.1-0.6-0.4-1.1-0.6-1.6l-1.1-2.5l-3.3,0C386.4,460.1,385.9,460.2,385.3,460.4"/>
		<path class="st5" d="M391.4,447.6l1.5,0.6l-1.5,1c-0.3,0.2-0.3,0.3-0.4,0.5c-0.6,1.6,1.3,2.7,2.6,3.2c1.2,0.4,3.3,0.8,3.9-0.8
			c0.1-0.3,0.1-0.4,0-0.8l-0.5-1.8l1.5,0.8c-0.3,1.6-0.7,3.5-2.3,4.2c-0.8,0.4-1.8,0.4-3-0.1c-1.2-0.4-2.1-1.1-2.5-2
			C389.8,450.8,390.5,449,391.4,447.6"/>
		<path class="st5" d="M347.3,346.9c49,0,88.8,39.8,88.8,88.8c0,49-39.8,88.8-88.8,88.8c-49,0-88.8-39.8-88.8-88.8
			C258.4,386.7,298.2,346.9,347.3,346.9 M347.3,352.2c-46.1,0-83.5,37.4-83.5,83.5c0,46.1,37.4,83.5,83.5,83.5s83.5-37.4,83.5-83.5
			C430.8,389.6,393.4,352.2,347.3,352.2"/>
		<path class="st5" d="M347.3,344c-50.6,0-91.7,41.1-91.7,91.7s41.1,91.7,91.7,91.7s91.7-41.1,91.7-91.7S397.9,344,347.3,344
			 M347.3,345.4c49.8,0,90.3,40.4,90.3,90.3c0,49.8-40.4,90.3-90.3,90.3S257,485.6,257,435.7C257,385.9,297.4,345.4,347.3,345.4"/>
		<path class="st5" d="M370.6,449.3c-0.7-0.1-1.1-0.7-0.9-1.5c0.2-0.8,0.9-1.3,1.6-1.3c0.7,0,1.1,0.7,0.8,1.5
			C372,448.8,371.3,449.3,370.6,449.3 M347.3,401.4c-18.9,0-34.3,15.3-34.3,34.3c0,15.6,10.4,28.8,24.7,32.9
			c-3.4-5.9-1.2-10.1-1.2-10.1c-3.7-3-3.3-8-3-9.9c0.1-0.4,0.2-0.4,0.2,0c0.3,6.4,4.2,6.5,5.4,6.3c2.1-0.4,3.8-2.9,8.2-2.9
			c4.5,0,6.2,2.5,8.2,2.9c1.2,0.2,5.1,0.1,5.4-6.3c0-0.4,0.1-0.4,0.2,0c0.3,1.9,0.7,6.9-3,9.9c0,0,2.2,4.2-1.2,10.1
			c14.3-4.1,24.7-17.3,24.7-32.9C381.5,416.8,366.2,401.4,347.3,401.4 M355.9,468.9c-2.8,0.7-5.6,1.1-8.6,1.1c-3,0-5.9-0.4-8.6-1.1
			c-1.5-5.4-0.4-8.1,0.7-6.7c2.2,2.8,3.7,4,4.7,4.7c0.8,0.6,0.5,0.1,0.2-0.3c-5.6-7.4-1.9-13.7,2.9-13.7c4.8,0,8.5,6.3,2.9,13.7
			c-0.3,0.4-0.6,0.9,0.2,0.3c1-0.7,2.5-1.9,4.7-4.7C356.3,460.8,357.4,463.5,355.9,468.9 M338.7,453.2c-0.9,0-1.7-1-1.7-2.2
			c0-1.2,0.8-2.2,1.7-2.2s1.7,1,1.7,2.2C340.4,452.2,339.6,453.2,338.7,453.2 M357.4,414.7c0.1,0,0.2,0.1,0,0.2
			c-14.6,4.8-22-3.9-31.9-0.8c-0.2,0.1-0.3,0-0.1-0.1C334.3,408.1,342.8,417.5,357.4,414.7 M323.9,449.3c-0.7,0.1-1.4-0.5-1.6-1.3
			c-0.2-0.8,0.2-1.4,0.8-1.5c0.7,0,1.4,0.5,1.6,1.3C325,448.6,324.6,449.2,323.9,449.3 M357.3,420.3c6-2.3,15-2.7,18.3,1.7
			c-8-2.2-13.6-1.9-22,0.8c-4.4,1.4-8.4,1.4-12.8,0c-8.4-2.7-14-3-22-0.8c5.8-4.7,12.6-3.9,18.3-1.7
			C343.7,422.8,350.8,422.8,357.3,420.3 M351,403.8c0.3-0.1,0.5-0.1,0.5,0.3l0,8.3c-2.8-3.5-12.2-2-15.6-1.5
			c-0.4,0.1-0.5-0.1-0.1-0.3L351,403.8z M346.3,429v14.8c-9.3-5-15.8-0.6-24.7-2.9v-15.2C331.9,428.5,339.2,423.3,346.3,429
			 M348.2,429c7.2-5.7,14.5-0.6,24.7-3.3v15.2c-8.9,2.3-15.5-2.1-24.7,2.9V429z M369.3,416.5c-9.6-1.3-12.9,4.6-21.9,3.3
			c-0.2,0-0.1-0.1,0-0.1c8.8-0.5,12.5-7.6,21.9-3.3C369.5,416.4,369.5,416.5,369.3,416.5 M370.8,453c2.5-1.1,4.2-3.6,4.8-6.2
			c0.1-0.3,0-0.3-0.1,0c-0.9,1.9-2.7,4.1-5.2,3.6c-1.3-0.2-1.8-1.4-2.8-2.1c-0.9-0.7-2.3-1.1-4.5-0.6c-0.2,0-0.2,0.2,0,0.2
			c2.3,0,4,1.3,4.2,3.2c0.2,2-1.1,4.5-4.7,6.5c-0.3,0.2-0.3,0.4,0.1,0.3c1.9-0.6,3.6-1.6,5.3-2.8c0.7-0.5,1,0.1,0.6,1.3
			c-0.4,1.2-1.3,3-2.9,4.9c-0.2,0.2-0.1,0.3,0.2,0.1C368.5,459.7,371.6,456.2,370.8,453 M323.7,453c-2.5-1.1-4.2-3.6-4.8-6.2
			c-0.1-0.3,0-0.3,0.1,0c0.9,1.9,2.7,4.1,5.2,3.6c1.3-0.2,1.8-1.4,2.8-2.1c0.9-0.7,2.3-1.1,4.5-0.6c0.2,0,0.2,0.2,0,0.2
			c-2.3,0-4,1.3-4.2,3.2c-0.2,2,1.1,4.5,4.7,6.5c0.3,0.2,0.3,0.4-0.1,0.3c-1.9-0.6-3.6-1.6-5.3-2.8c-0.7-0.5-1,0.1-0.6,1.3
			c0.4,1.2,1.3,3,2.9,4.9c0.2,0.2,0.1,0.3-0.2,0.1C326,459.7,323,456.2,323.7,453 M355.8,453.2c-0.9,0-1.7-1-1.7-2.2
			c0-1.2,0.8-2.2,1.7-2.2s1.7,1,1.7,2.2C357.5,452.2,356.8,453.2,355.8,453.2 M320.2,424.6h-1.9v19.1c8.8,3.2,18.1-1.8,26.2,2.7
			c-0.7,0.3-1.1,0.7-1.1,1.2c0,1.5,3,1.7,3.8,1.7c0.8,0,3.8-0.2,3.8-1.7c0-0.5-0.4-0.9-1.1-1.2c8.2-4.5,17.4,0.5,26.2-2.7v-19.1
			h-1.9v17.5c-9.1,2.8-18.3-1.9-27.1,4c-8.7-5.8-18-1.1-27.1-4V424.6z"/>
		<path class="st5" d="M324.7,429v1.3c4.1,1,12.7-1.3,17.9,0.9v-1.5C337.7,427.8,332.9,429.6,324.7,429"/>
		<path class="st5" d="M324.7,437.2v1.3c4.1,1,12.7-1.3,17.9,0.9v-1.5C337.7,435.9,332.9,437.7,324.7,437.2"/>
		<path class="st5" d="M324.7,433.1v1.3c4.1,1,12.7-1.3,17.9,0.9v-1.5C337.7,431.9,332.9,433.6,324.7,433.1"/>
		<path class="st5" d="M369.8,429v1.3c-4.2,1-12.7-1.3-17.9,0.9v-1.5C356.9,427.8,361.6,429.6,369.8,429"/>
		<path class="st5" d="M369.8,437.2v1.3c-4.2,1-12.7-1.3-17.9,0.9v-1.5C356.9,435.9,361.6,437.7,369.8,437.2"/>
		<path class="st5" d="M369.8,433.1v1.3c-4.2,1-12.7-1.3-17.9,0.9v-1.5C356.9,431.9,361.6,433.6,369.8,433.1"/>
		<path class="st5" d="M347.3,394.7c22.7,0,41,18.4,41,41c0,22.7-18.4,41-41,41c-22.7,0-41-18.4-41-41
			C306.2,413.1,324.6,394.7,347.3,394.7 M347.3,396.6c-21.6,0-39.1,17.5-39.1,39.1s17.5,39.1,39.1,39.1c21.6,0,39.1-17.5,39.1-39.1
			S368.9,396.6,347.3,396.6"/>
		<path class="st5" d="M347.3,398.1c20.8,0,37.7,16.9,37.7,37.7c0,20.8-16.9,37.7-37.7,37.7c-20.8,0-37.7-16.9-37.7-37.7
			C309.6,414.9,326.5,398.1,347.3,398.1 M347.3,400c-19.7,0-35.7,16-35.7,35.7c0,19.7,16,35.7,35.7,35.7c19.7,0,35.7-16,35.7-35.7
			C383,416,367,400,347.3,400"/>
		<path class="st5" d="M367.2,392.7c1.5,0.7,2.4-1.6,1-2.3c-13.2-6.1-28.6-6.1-41.9,0c-1.4,0.6-0.4,2.9,1,2.3
			C339.9,386.8,354.7,386.8,367.2,392.7"/>
	</g>
</g>
</svg>
