<?xml version="1.0" encoding="utf-8"?>
<!-- Generator: Adobe Illustrator 25.0.0, SVG Export Plug-In . SVG Version: 6.00 Build 0)  -->
<svg version="1.1" id="Layer_1" xmlns="http://www.w3.org/2000/svg" xmlns:xlink="http://www.w3.org/1999/xlink" x="0px" y="0px"
	 viewBox="0 0 637 637" style="enable-background:new 0 0 637 637;" xml:space="preserve">
<style type="text/css">
	.st0{fill:#FDFDFF;}
</style>
<path class="st0" d="M201.1,227.3H436c6.2,0,11.2-5,11.2-11.2s-5-11.2-11.2-11.2H201.1c-6.2,0-11.2,5-11.2,11.2
	C189.9,222.2,194.9,227.3,201.1,227.3z M201.1,302.2H436c6.2,0,11.2-5,11.2-11.2s-5-11.2-11.2-11.2H201.1c-6.2,0-11.2,5-11.2,11.2
	C189.9,297.2,194.9,302.2,201.1,302.2z M436,364.7c6.2,0,11.2-5,11.2-11.2s-5-11.2-11.2-11.2H201.1c-6.2,0-11.2,5-11.2,11.2
	s5,11.2,11.2,11.2H436z M617.2,462c0-22-16.8-40.3-38.7-42.3s-41.7,13.1-45.6,34.8c-3.9,21.6,9.3,42.7,30.6,48.5v64.1h-46.2v-426
	c0-6.2-5-11.2-11.2-11.2h-63.7v-74c0-6.2-5-11.2-11.2-11.2H206.1c-6.2,0-11.2,5-11.2,11.2v74h-63.7c-6.2,0-11.2,5-11.2,11.2v426
	H73.7V503c20.5-5.6,33.7-25.6,30.9-46.6c-2.8-21.1-20.8-36.8-42.1-36.8s-39.3,15.7-42.1,36.8c-2.8,21.1,10.3,41,30.9,46.6v64.1h-20
	c-6.2,0-11.2,5-11.2,11.2s5,11.2,11.2,11.2H606c6.2,0,11.2-5,11.2-11.2s-5-11.2-11.2-11.2h-20V503
	C604.4,497.9,617.2,481.1,617.2,462z M42.5,462c0-11,8.9-20,20-20c11,0,20,8.9,20,20c0,11-9,20-20,20C51.4,482,42.5,473,42.5,462z
	 M217.4,67.1h202.4v62.8H217.4V67.1z M142.4,152.3h352.3v414.8h-65v-31c0-6.2-5-11.2-11.2-11.2h-20v-107c0-6.2-5-11.2-11.2-11.2
	H249.9c-6.2,0-11.2,5-11.2,11.2v107h-20c-6.2,0-11.2,5-11.2,11.2v31h-65V152.3H142.4z M376.1,524.9h-46.2v-95.8h46.2V524.9z
	 M307.3,524.9h-46.2v-95.8h46.2V524.9z M407.3,547.3V567H229.9v-19.7H407.3z M554.7,462c0-11,8.9-20,20-20c11,0,20,8.9,20,20
	c0,11-9,20-20,20S554.7,473,554.7,462z"/>
</svg>
