<?xml version="1.0" encoding="utf-8"?>
<!-- Generator: Adobe Illustrator 25.0.0, SVG Export Plug-In . SVG Version: 6.00 Build 0)  -->
<svg version="1.1" id="Layer_1" xmlns="http://www.w3.org/2000/svg" xmlns:xlink="http://www.w3.org/1999/xlink" x="0px" y="0px"
	 viewBox="0 0 46.5 11.2" style="enable-background:new 0 0 46.5 11.2;" xml:space="preserve">
<style type="text/css">
	.st0{fill:#18324B;}
	.st1{fill:#FFFFFF;}
	.st2{font-family:'Perpetua-Bold';}
	.st3{font-size:6.229px;}
	.st4{font-family:'Poppins-SemiBold';}
	.st5{font-size:1.4169px;}
</style>
<rect x="-2.1" y="-4.5" transform="matrix(1 -6.723271e-03 6.723271e-03 1 -4.190020e-02 0.2358)" class="st0" width="74.3" height="21.7"/>
<polygon class="st1" points="5.2,1.8 4.6,2.7 8.2,8.1 5.2,8.1 4.2,6.6 3.7,7.4 4.7,9 9.8,9 "/>
<polygon class="st1" points="4.2,3.4 6.8,7.4 5.6,7.4 4.2,5.1 2.2,8.2 3.2,8.2 3.7,9 0.7,9 "/>
<g>
	<text transform="matrix(1 -6.723354e-03 6.723354e-03 1 10.4282 6.4382)" class="st1 st2 st3">ALJAS</text>
</g>
<g>
	<text transform="matrix(1.105 -6.947063e-03 7.189694e-03 1 10.5144 8.9787)" class="st1 st4 st5">METAL ASSOCIATES F.Z.C</text>
</g>
</svg>
