<svg xmlns="http://www.w3.org/2000/svg" viewBox="0 0 48 48"><defs><style>.cls-1{fill:#4891d3;}.cls-2{fill:#2d72bc;}.cls-3{fill:#a1d51c;}.cls-4{fill:#192835;}</style></defs><title>calling</title><g id="calling"><path class="cls-1" d="M38.29,38.29,37,39.64a3.22,3.22,0,0,1-3.05.86l-.25-.06C19.83,37,11.05,28.17,7.56,14.34L7.5,14.1a3.22,3.22,0,0,1,.86-3L9.71,9.71a3.24,3.24,0,0,1,4.58,0l4,4a3.23,3.23,0,0,1,0,4.58l-.91.91a5.31,5.31,0,0,0-.25,7.16,41.75,41.75,0,0,0,4.51,4.51,5.31,5.31,0,0,0,7.16-.25l.91-.91a3.3,3.3,0,0,1,4.58,0l4,4A3.23,3.23,0,0,1,38.29,38.29Z"/><path class="cls-2" d="M16,17a1,1,0,0,1-.71-.29l-7-7A1,1,0,0,1,9.71,8.29l7,7a1,1,0,0,1,0,1.42A1,1,0,0,1,16,17Z"/><path class="cls-2" d="M36,37a1,1,0,0,1-.71-.29l-7-7a1,1,0,0,1,1.42-1.42l7,7a1,1,0,0,1,0,1.42A1,1,0,0,1,36,37Z"/><path class="cls-3" d="M32,24a1,1,0,0,1-1-1,6,6,0,0,0-6-6,1,1,0,0,1,0-2,8,8,0,0,1,8,8A1,1,0,0,1,32,24Z"/><path class="cls-3" d="M37,24a1,1,0,0,1-1-1A11,11,0,0,0,25,12a1,1,0,0,1,0-2A13,13,0,0,1,38,23,1,1,0,0,1,37,24Z"/><path class="cls-3" d="M42,24a1,1,0,0,1-1-1A16,16,0,0,0,25,7a1,1,0,0,1,0-2A18,18,0,0,1,43,23,1,1,0,0,1,42,24Z"/><path class="cls-4" d="M39.71,32.29l-4-4a5.26,5.26,0,0,0-7.42,0l-.91.91a3.24,3.24,0,0,1-4.44.15,38.62,38.62,0,0,1-4.29-4.29,3.24,3.24,0,0,1,.15-4.44l.91-.91a5.26,5.26,0,0,0,0-7.42l-4-4a5.26,5.26,0,0,0-7.42,0L7,9.64a5.22,5.22,0,0,0-1.39,4.95l.06.24c3.68,14.6,13,23.87,27.54,27.55l.25.06a4.74,4.74,0,0,0,1.24.16,5.28,5.28,0,0,0,3.71-1.55l1.35-1.34A5.26,5.26,0,0,0,39.71,32.29Zm-1.42,6L37,39.64a3.22,3.22,0,0,1-3.05.86l-.25-.06C19.83,37,11.05,28.17,7.56,14.34L7.5,14.1a3.22,3.22,0,0,1,.86-3L9.71,9.71a3.24,3.24,0,0,1,4.58,0l4,4a3.23,3.23,0,0,1,0,4.58l-.91.91a5.31,5.31,0,0,0-.25,7.16,41.75,41.75,0,0,0,4.51,4.51,5.31,5.31,0,0,0,7.16-.25l.91-.91a3.3,3.3,0,0,1,4.58,0l4,4A3.23,3.23,0,0,1,38.29,38.29Z"/></g></svg>